<?xml version="1.0" encoding="UTF-8" standalone="no"?>
<!-- Created with Inkscape (http://www.inkscape.org/) -->

<svg
   width="650mm"
   height="650mm"
   viewBox="0 0 650 650"
   version="1.1"
   id="svg1"
   inkscape:version="1.4.2 (f4327f4, 2025-05-13)"
   sodipodi:docname="kokokita_irodori_indigo_v2.svg"
   inkscape:export-filename="Desktop\開発\irodoriロゴ作成\kokita_irodori_blue.png"
   inkscape:export-xdpi="32.512001"
   inkscape:export-ydpi="32.512001"
   xmlns:inkscape="http://www.inkscape.org/namespaces/inkscape"
   xmlns:sodipodi="http://sodipodi.sourceforge.net/DTD/sodipodi-0.dtd"
   xmlns="http://www.w3.org/2000/svg"
   xmlns:svg="http://www.w3.org/2000/svg">
  <sodipodi:namedview
     id="namedview1"
     pagecolor="#ffffff"
     bordercolor="#000000"
     borderopacity="0.25"
     inkscape:showpageshadow="2"
     inkscape:pageopacity="0.0"
     inkscape:pagecheckerboard="false"
     inkscape:deskcolor="#d1d1d1"
     inkscape:document-units="mm"
     inkscape:zoom="0.044932398"
     inkscape:cx="-4273.086"
     inkscape:cy="589.77489"
     inkscape:window-width="1920"
     inkscape:window-height="1009"
     inkscape:window-x="-8"
     inkscape:window-y="-8"
     inkscape:window-maximized="1"
     inkscape:current-layer="g32"
     showborder="true"
     inkscape:lockguides="false"
     showgrid="true"
     inkscape:export-bgcolor="#007affff">
    <inkscape:grid
       id="grid12"
       units="mm"
       originx="0"
       originy="0"
       spacingx="0.99999999"
       spacingy="0.99999999"
       empcolor="#0099e5"
       empopacity="0.30196078"
       color="#0099e5"
       opacity="0.14901961"
       empspacing="5"
       enabled="false"
       visible="true" />
    <inkscape:grid
       type="axonomgrid"
       id="grid13"
       units="mm"
       originx="0"
       originy="0"
       spacingx="0.99999999"
       spacingy="0.99999999"
       empcolor="#0099e5"
       empopacity="0.30196078"
       color="#0099e5"
       opacity="0.14901961"
       empspacing="5"
       dotted="false"
       gridanglex="30"
       gridanglez="30"
       enabled="false"
       visible="true" />
    <inkscape:grid
       type="modular"
       id="grid14"
       units="mm"
       originx="0"
       originy="0"
       spacingx="40"
       spacingy="40"
       empcolor="#0047cb"
       empopacity="0.30196078"
       color="#0099e5"
       opacity="0.14901961"
       empspacing="0"
       marginx="0"
       marginy="0"
       gapx="9.9999999"
       gapy="9.9999999"
       enabled="false"
       visible="true" />
    <inkscape:grid
       id="grid15"
       units="mm"
       originx="0"
       originy="0"
       spacingx="0.99999999"
       spacingy="0.99999999"
       empcolor="#0099e5"
       empopacity="0.30196078"
       color="#0099e5"
       opacity="0.14901961"
       empspacing="5"
       enabled="false"
       visible="true" />
    <inkscape:grid
       id="grid16"
       units="mm"
       originx="0"
       originy="0"
       spacingx="0.99999999"
       spacingy="0.99999999"
       empcolor="#0099e5"
       empopacity="0.30196078"
       color="#0099e5"
       opacity="0.14901961"
       empspacing="5"
       enabled="false"
       visible="true" />
    <inkscape:grid
       type="modular"
       id="grid17"
       units="mm"
       originx="0"
       originy="0"
       spacingx="40"
       spacingy="40"
       empcolor="#0047cb"
       empopacity="0.30196078"
       color="#0099e5"
       opacity="0.14901961"
       empspacing="0"
       marginx="0"
       marginy="0"
       gapx="9.9999999"
       gapy="9.9999999"
       enabled="false"
       visible="true" />
    <inkscape:grid
       id="grid18"
       units="mm"
       originx="0"
       originy="0"
       spacingx="0.99999999"
       spacingy="0.99999999"
       empcolor="#0099e5"
       empopacity="0.30196078"
       color="#0099e5"
       opacity="0.14901961"
       empspacing="5"
       enabled="false"
       visible="false" />
  </sodipodi:namedview>
  <defs
     id="defs1">
    <inkscape:path-effect
       effect="powerstroke"
       message=""
       id="path-effect33"
       is_visible="true"
       lpeversion="1.3"
       scale_width="0.9"
       interpolator_type="CubicBezierJohan"
       interpolator_beta="0"
       start_linecap_type="square"
       end_linecap_type="zerowidth"
       offset_points="0.19864189,0.13607494 | 0.51435763,0.13634942 | 0.8,0.1322915"
       linejoin_type="round"
       miter_limit="4"
       not_jump="false"
       sort_points="true" />
    <inkscape:path-effect
       effect="powerstroke"
       message=""
       id="path-effect30"
       is_visible="true"
       lpeversion="1.3"
       scale_width="0.9"
       interpolator_type="CubicBezierJohan"
       interpolator_beta="0"
       start_linecap_type="square"
       end_linecap_type="zerowidth"
       offset_points="0.19864189,0.13607494 | 0.51435763,0.13634942 | 0.8,0.1322915"
       linejoin_type="round"
       miter_limit="4"
       not_jump="false"
       sort_points="true" />
    <linearGradient
       id="swatch24"
       inkscape:swatch="solid">
      <stop
         style="stop-color:#000000;stop-opacity:1;"
         offset="0"
         id="stop24" />
    </linearGradient>
    <inkscape:path-effect
       effect="powerstroke"
       message=""
       id="path-effect11"
       is_visible="true"
       lpeversion="1.3"
       scale_width="0.9"
       interpolator_type="CubicBezierJohan"
       interpolator_beta="0"
       start_linecap_type="square"
       end_linecap_type="zerowidth"
       offset_points="0.19864189,0.13607494 | 0.51435763,0.13634942 | 0.8,0.1322915"
       linejoin_type="round"
       miter_limit="4"
       not_jump="false"
       sort_points="true" />
    <inkscape:path-effect
       effect="taper_stroke"
       start_shape="center | center"
       end_shape="center | center"
       id="path-effect3"
       is_visible="true"
       lpeversion="1"
       stroke_width="0.51288801"
       subpath="1"
       attach_start="0.49941342"
       end_offset="0.87140956"
       start_smoothing="0.5"
       end_smoothing="0.5"
       jointype="extrapolated"
       miter_limit="100" />
    <inkscape:path-effect
       effect="fill_between_many"
       method="bsplinespiro"
       autoreverse="false"
       close="false"
       join="false"
       linkedpaths="#rect1,0,1"
       id="path-effect4"
       is_visible="true"
       lpeversion="0" />
    <inkscape:path-effect
       effect="fill_between_many"
       method="bsplinespiro"
       autoreverse="false"
       close="false"
       join="false"
       linkedpaths="#path11,0,1"
       id="path-effect12"
       is_visible="true"
       lpeversion="0" />
  </defs>
  <g
     inkscape:label="v2_blue"
     inkscape:groupmode="layer"
     id="g32"
     transform="translate(28.706322,-11.072654)"
     style="display:inline">
    <path
       style="fill:#5856d6;fill-opacity:1;fill-rule:nonzero;stroke:none;stroke-width:1.10201;stroke-dasharray:none"
       d="m 118.01507,128.10611 c 0,0 0,-0.0273 0,0.21218 0,0.25194 0,0.86047 0,1.85998 -10e-6,1.99903 -2e-5,5.63142 -2e-5,5.63142 0,0 -2e-5,1.04833 -4e-5,2.94482 0,-0.39009 -1.1e-4,8.48699 -1e-4,8.0969 -4e-5,3.24826 -1.7e-4,15.56695 -2e-4,18.81521 -10e-6,1.03009 -2e-5,1.62102 -2e-5,1.62102 0,0 4.7e-4,4.36856 0.001,9.69032 -7e-5,-0.62382 0.002,15.26915 0.002,14.64532 3.7e-4,2.52869 6.2e-4,3.97396 6.2e-4,3.97396 0,0 0.0205,2.62041 0.0446,4.67523 0.0126,1.07576 0.025,1.90363 0.0372,2.4769 0.007,0.32326 0.0131,0.53796 0.0186,0.68085 0.0107,0.27631 0.0186,0.27267 0.0186,0.27267 0,0 0.008,0.004 0.0186,-0.27267 0.006,-0.14289 0.0117,-0.35759 0.0186,-0.68085 0.0122,-0.57327 0.0246,-1.40114 0.0372,-2.4769 0.0242,-2.05482 0.0447,-4.67523 0.0447,-4.67523 0,0 2.7e-4,-1.44527 6.5e-4,-3.97395 6e-5,-0.34559 0.002,-14.29974 0.002,-14.64532 6.5e-4,-5.32177 0.001,-9.69033 0.001,-9.69033 0,0 0,-0.59079 -1e-5,-1.62101 6e-5,16.94869 -1.3e-4,-35.76392 -7e-5,-18.81522 0,-0.48723 -4e-5,-7.60966 -4e-5,-8.0969 -1e-5,-1.89649 -2e-5,-2.94482 -2e-5,-2.94482 0,0 1e-5,-3.63238 2e-5,-5.63141 0,-0.99952 10e-6,-1.60805 10e-6,-1.85999 0,-0.23946 0,-0.21218 0,-0.21218 l 0,-0.12247 -0.24494,0 z"
       id="path31"
       inkscape:linked-fill="path12"
       transform="matrix(109.5357,0,0,2.6366947,-12643.97,-20.962025)"
       sodipodi:nodetypes="cc"
       inkscape:original-d="m 118.13754,128.10611 c 0,0 -2.6e-4,74.96245 -2.6e-4,75.59678"
       inkscape:path-effect="#path-effect33"
       inkscape:label="ピン" />
    <path
       style="fill:#000000;fill-opacity:0;stroke:#5856d6;stroke-width:25.8;stroke-dasharray:none;stroke-opacity:1"
       id="path32"
       sodipodi:type="arc"
       sodipodi:cx="296.29367"
       sodipodi:cy="500.35464"
       sodipodi:rx="252.00635"
       sodipodi:ry="86.843971"
       sodipodi:start="4.8694686"
       sodipodi:end="4.5553093"
       sodipodi:arc-type="arc"
       d="M 335.71615,414.57987 A 252.00635,86.843971 0 0 1 547.52317,507.16834 252.00635,86.843971 0 0 1 296.29367,587.19862 252.00635,86.843971 0 0 1 45.064175,507.16835 252.00635,86.843971 0 0 1 256.87118,414.57987"
       sodipodi:open="true"
       inkscape:label="弧" />
    <path
       id="path3"
       style="display:inline;fill:#5856d6;fill-opacity:1;stroke-width:120.177;stroke-dasharray:none"
       inkscape:label="胴体"
       d="m 357.12257,61.110545 c -20.50439,0.622461 -40.32079,9.147134 -53.81722,23.920093 -1.95734,2.142514 -9.01401,11.143854 -15.68174,20.002382 -29.00549,38.53573 -35.30844,46.11238 -53.35383,64.13421 -23.39059,23.36003 -48.44199,41.58698 -70.68226,51.42644 -17.05909,7.54722 -31.54905,11.27091 -55.36229,14.22984 -10.636854,1.32167 -12.130664,1.93321 -12.130664,4.96309 0,4.64061 17.525164,24.11926 28.266154,31.41672 9.90469,6.72933 22.49644,12.43416 31.47362,14.26015 l 2.438,0.49604 -7.5632,6.00002 c -15.14116,12.01198 -30.4513,21.78641 -46.99208,30.00114 -9.624364,4.77978 -10.689524,5.46835 -11.055044,7.13247 -0.5422,2.4687 0.93516,3.97202 8.041144,8.18271 13.35562,7.91393 27.82411,12.37099 42.78155,13.17839 21.32058,1.15092 41.62103,-7.294 61.63812,-25.6406 l 4.02661,-3.69025 2.12221,0.87357 c 3.45768,1.4251 15.89985,4.59612 23.58615,5.55717 7.08284,0.88562 10.91287,1.11052 25.8487,1.11068 h 18.53355 l 9.7568,-1.33572 0.0967,0.0786 3.62494,-0.44407 c 5.05027,-0.61862 19.55662,-2.8897 21.16875,-3.31394 0.16903,-0.0444 0.3304,-0.0601 0.4985,-0.0188 l 11.47244,-2.73686 10e-4,10e-4 c 1.01491,-0.61015 3.00702,-1.45323 5.79551,-2.4404 20.31641,-7.19226 40.66317,-20.08233 57.62118,-36.50446 13.90638,-13.46689 23.62863,-26.30325 31.24375,-41.25098 11.25047,-22.08352 15.20099,-41.01485 16.07743,-77.04765 l 0.4053,-16.66062 4.08349,-2.37989 c 5.82892,-3.39747 26.959,-17.60662 31.21228,-20.98846 4.16535,-3.31192 5.46549,-5.46653 4.11012,-6.8155 -0.68397,-0.68068 -24.27765,-6.04864 -46.53836,-10.58798 -1.34184,-0.27365 -2.12096,-1.252 -3.95886,-4.97158 -9.35762,-18.938352 -27.29309,-33.08328 -48.26486,-38.064056 -6.77905,-1.610005 -13.69027,-2.280093 -20.52511,-2.072606 z m 0.24077,10.228657 c 5.54214,-0.150515 11.09774,0.22173 15.58983,1.146979 13.56825,2.79491 22.84494,7.821272 32.57104,17.647902 9.01592,9.10909 14.27142,18.698417 17.97094,32.787587 2.79123,10.63009 3.50963,17.97548 3.45673,35.35143 -0.10196,33.37423 -3.02483,51.70275 -11.32728,71.02229 -7.74546,18.02339 -20.87252,35.67453 -37.61879,50.58426 -3.24169,2.8862 -7.43636,6.43776 -9.32121,7.89352 l -3.42651,2.64732 2.60614,-5.34664 c 4.81372,-9.87633 7.41671,-23.5453 6.79854,-35.70226 -1.10091,-21.65261 -9.62563,-40.77072 -25.51112,-57.2135 -7.72234,-7.99317 -16.2319,-14.67807 -24.23711,-19.04168 -4.17675,-2.27676 -51.53933,-21.25626 -57.37923,-22.99332 -0.59624,-0.17723 -1.08409,-0.55244 -1.08409,-0.83363 0,-0.2812 2.29983,-3.39458 5.11071,-6.91833 2.81087,-3.52372 11.94045,-15.44557 20.28793,-26.49359 8.34746,-11.04803 16.84983,-21.888348 18.89411,-24.089496 7.99227,-8.605473 19.40299,-15.37542 31.11187,-18.457329 4.43717,-1.167937 9.96542,-1.840928 15.5075,-1.991513 z m 17.05139,44.540748 c -3.00292,-0.0379 -6.07776,0.66602 -8.12095,2.01816 -3.17412,2.10051 -5.79053,6.50319 -6.16211,10.37019 -0.51568,5.36653 3.33686,11.47229 8.55171,13.55354 2.36851,0.94526 8.44155,0.79519 10.99695,-0.27223 4.91165,-2.05175 5.22317,-2.20893 5.24777,-7.53716 0.0251,-5.45821 -0.78565,-14.13614 -5.68469,-16.00706 -1.51181,-0.57736 -3.02689,-2.10274 -4.82868,-2.12544 z m 58.25642,0.70177 c 1.15156,-0.0506 4.27971,0.60638 12.14276,2.30125 7.18068,1.54777 13.05624,2.96903 13.05624,3.1579 0,0.18896 -4.76894,3.40799 -10.59768,7.15422 -5.82873,3.74629 -10.84649,6.90517 -11.15061,7.01875 -0.30411,0.11352 -0.55294,-0.49957 -0.55294,-1.36235 0,-1.45229 -2.56804,-14.53789 -3.43134,-17.48576 -0.13718,-0.46842 -0.15735,-0.75376 0.53357,-0.78401 z m -173.03058,40.61457 17.18813,6.70052 c 9.45391,3.68543 17.29482,6.78324 17.42404,6.88321 0.1292,0.0999 -1.49852,3.32798 -3.61766,7.17364 -14.70587,26.68726 -33.48356,45.94142 -55.7942,57.21105 -17.03492,8.60472 -34.97234,12.41111 -51.2522,10.87475 -7.46995,-0.70496 -9.68121,-0.34712 -10.20325,1.64913 -1.12833,4.31481 8.2588,16.30724 18.95944,24.22257 2.62032,1.93824 3.93036,3.26397 3.40714,3.44704 -0.46758,0.16366 -3.35948,0.74082 -6.4259,1.2825 -6.8824,1.21583 -21.53875,1.68009 -26.94728,0.8542 -12.33623,-1.88365 -28.63281,-9.77049 -40.35085,-19.52806 -4.33722,-3.6116 -13.54382,-13.1949 -13.54382,-14.09799 0,-0.21024 1.18476,-0.3841 2.63278,-0.38595 3.89291,-0.004 19.06467,-2.33204 26.22136,-4.02176 37.19928,-8.78296 72.33142,-30.95824 109.49046,-69.11063 z m 44.61582,17.26553 c 0.0968,0.001 0.19293,0.021 0.29278,0.0507 4.90003,1.4623 17.58845,7.60229 22.39442,10.83723 6.49968,4.37507 6.34392,4.01628 4.84087,11.16149 -3.01188,14.31798 -11.28225,30.79655 -21.17962,42.1996 -14.96801,17.24507 -41.28062,31.58725 -64.90615,35.37801 -22.72793,3.64669 -40.8949,-1.24881 -55.46636,-14.94492 l -3.93101,-3.69387 8.6364,-0.36539 c 16.57722,-0.70161 31.41467,-4.80639 46.63634,-12.90137 23.98202,-12.7538 42.6843,-32.3604 57.70953,-60.49959 3.13515,-5.87151 4.03877,-7.25133 4.9728,-7.22204 z m 36.96785,22.33629 c 0.20697,0.001 0.49792,0.25278 0.95584,0.66307 0.68301,0.6119 2.83012,3.06453 4.77191,5.4495 9.11894,11.2002 14.14103,21.11395 17.41682,34.38106 1.23302,4.99357 1.45584,7.48031 1.4652,16.41618 0.008,8.99711 -0.1941,11.31703 -1.40108,15.92977 -3.16988,12.11445 -7.33211,19.62624 -15.21716,27.46034 -4.74206,4.71141 -6.57553,6.05995 -11.52446,8.4755 -6.45659,3.15135 -14.97706,6.01413 -22.53599,7.57167 -5.03291,1.03709 -14.76485,1.68698 -18.0399,1.20508 -13.38643,-1.9697 -27.08091,-7.54054 -38.26736,-15.56806 -4.57858,-3.28562 -15.93702,-13.93722 -15.93702,-14.9449 0,-0.23876 0.76658,-0.49394 1.70354,-0.56747 3.77861,-0.2963 12.00733,-2.253 18.73924,-4.45613 32.23614,-10.54979 56.67776,-30.78179 69.47236,-57.50744 3.41955,-7.14284 6.96587,-17.31537 7.66731,-21.9927 0.27319,-1.82199 0.386,-2.51734 0.73075,-2.51547 z M 208.3134,280.36242 c 0.48063,0.0163 1.01443,0.13277 1.56924,0.34724 0.95929,0.37065 4.3444,1.18199 7.52206,1.80279 3.17769,0.62082 5.89095,1.24117 6.02905,1.37931 0.44649,0.44652 -7.95725,13.92046 -12.6485,20.27945 -5.83485,7.90914 -17.34719,19.08959 -24.7622,24.04837 -9.68476,6.47666 -19.23863,10.57288 -28.60011,12.26253 -4.2434,0.76588 -15.43843,1.04586 -19.2038,0.48036 -9.6682,-1.45205 -18.87002,-4.13111 -26.80819,-7.80643 l -5.43495,-2.51663 6.88807,-3.62735 c 20.62476,-10.85959 39.66657,-24.08241 53.85107,-37.39497 l 2.78769,-2.61582 7.124,-0.37147 c 3.91817,-0.20415 9.63288,-0.81502 12.69928,-1.35629 5.82724,-1.02861 15.88951,-3.67288 17.73742,-4.66184 0.34212,-0.18311 0.76917,-0.26602 1.24987,-0.24925 z m 25.06949,5.32849 c 0.1714,-0.0186 1.10951,0.92596 2.15611,2.17787 4.1616,4.97802 14.76862,14.91812 19.61277,18.37866 5.77481,4.1254 16.21327,9.71383 21.21112,11.3563 l 3.40714,1.11915 -2.78767,0.44407 c -3.34547,0.53301 -28.40072,0.97847 -32.52263,0.75738 -9.98668,-0.53557 -26.81256,-4.3277 -28.96667,-5.61641 -0.25856,-0.15471 0.73898,-1.86566 2.21657,-3.80278 4.10208,-5.37785 7.30367,-10.29035 11.5789,-17.77009 2.14218,-3.74783 3.97495,-6.91345 4.0738,-7.03449 6.1e-4,-6.9e-4 0.001,-0.001 0.004,-0.004 0.004,-0.001 0.008,-0.004 0.0163,-0.007 z m 81.51109,38.23227 c 0.0919,0.0824 0.18871,0.18401 0.2916,0.30729 -0.10243,-0.12283 -0.19971,-0.22502 -0.2916,-0.30729 z M 361.49132,62.413738 c -20.68742,0.628032 -40.68069,9.228782 -54.2976,24.133613 -1.9748,2.16164 -9.09446,11.243318 -15.8217,20.180909 -29.26439,38.87971 -35.62359,46.52398 -53.83005,64.70665 -23.59937,23.56856 -48.87438,41.9582 -71.31314,51.88546 -17.21137,7.61459 -31.83066,11.37153 -55.85645,14.35686 -10.731794,1.33348 -12.238964,1.95046 -12.238964,5.00739 0,4.68204 17.681614,24.33456 28.518464,31.69715 9.9931,6.78938 22.69725,12.54514 31.75456,14.38743 l 2.45976,0.50046 -7.63072,6.05357 c -15.2763,12.11919 -30.72309,21.98086 -47.41151,30.26893 -9.710274,4.82244 -10.784944,5.51716 -11.153724,7.19612 -0.54703,2.49073 0.9435,4.00748 8.112914,8.25576 13.47483,7.98457 28.07247,12.4814 43.16342,13.296 21.51088,1.16122 41.99253,-7.3591 62.18827,-25.86944 l 4.06254,-3.72318 2.14117,0.88135 c 3.48854,1.43782 16.04179,4.63713 23.79667,5.60676 7.14605,0.89354 11.01027,1.12047 26.07942,1.1206 h 18.69897 l 9.8439,-1.34762 0.0975,0.0793 3.65729,-0.44802 c 5.09535,-0.62415 19.73117,-2.91551 21.3577,-3.34354 0.17054,-0.0447 0.33334,-0.0607 0.50295,-0.0189 l 11.57485,-2.76128 10e-4,10e-4 c 1.02395,-0.61562 3.03383,-1.46621 5.84722,-2.46221 20.49776,-7.25644 41.02612,-20.26156 58.1355,-36.83028 14.03051,-13.58709 23.83955,-26.53803 31.52263,-41.61919 11.35089,-22.28062 15.33666,-41.38093 16.22093,-77.73533 l 0.40892,-16.80933 4.11992,-2.40115 c 5.88097,-3.42778 27.19964,-17.76376 31.49089,-21.17579 4.20252,-3.34148 5.51428,-5.51533 4.1468,-6.87634 -0.69006,-0.68676 -24.49435,-6.10263 -46.95375,-10.68247 -1.35381,-0.2761 -2.13988,-1.26318 -3.99419,-5.01597 -9.44114,-19.107366 -27.53669,-33.378558 -48.69566,-38.403799 -6.83955,-1.624378 -13.81245,-2.300437 -20.70831,-2.091109 z m 0.24291,10.319957 c 5.59161,-0.151848 11.1968,0.223701 15.72899,1.157234 13.68934,2.819845 23.04884,7.891084 32.86175,17.805402 9.09638,9.190419 14.39881,18.865329 18.13134,33.080239 2.81616,10.725 3.54096,18.13596 3.4876,35.66697 -0.1029,33.67215 -3.05184,52.16426 -11.42839,71.65623 -7.8146,18.18426 -21.05883,35.99294 -37.95457,51.03578 -3.27061,2.91195 -7.50275,6.49521 -9.40442,7.96395 l -3.45708,2.67097 2.62939,-5.39436 c 4.8567,-9.96449 7.48291,-23.75546 6.85923,-36.02096 -1.11074,-21.84586 -9.71155,-41.13461 -25.73882,-57.72416 -7.79126,-8.06452 -16.37678,-14.80907 -24.45345,-19.21163 -4.21403,-2.29708 -51.99937,-21.446 -57.89138,-23.19856 -0.60157,-0.1788 -1.09378,-0.55736 -1.09378,-0.84107 0,-0.2837 2.32036,-3.42489 5.15634,-6.98006 2.83597,-3.55521 12.04701,-15.58345 20.46901,-26.7301 8.42196,-11.14662 17.00023,-22.083707 19.06275,-24.304503 8.06362,-8.682282 19.57618,-15.51266 31.38957,-18.622088 4.47679,-1.178356 10.05437,-1.857353 15.64592,-2.009284 z M 378.93781,117.672 c -3.02972,-0.0381 -6.132,0.67199 -8.19343,2.03619 -3.20246,2.11926 -5.84223,6.56122 -6.2171,10.46275 -0.52028,5.41442 3.36664,11.57469 8.62803,13.67449 2.38966,0.95372 8.5169,0.80233 11.09511,-0.27464 4.95547,-2.07006 8.22358,-6.95469 8.2484,-12.33048 0.0144,-3.13809 -2.72629,-2.92298 -6.00137,-3.96179 -2.47225,-0.78417 -5.24903,-3.01051 -7.37518,-3.82248 -1.52532,-0.58251 0.91778,-2.31299 -0.18446,-5.78404 z m 58.77641,0.70805 c 1.16184,-0.0511 4.31791,0.61179 12.25115,2.3218 7.24477,1.56159 13.17278,2.99551 13.17278,3.18608 0,0.19064 -4.81151,3.4384 -10.69229,7.21807 -5.88076,3.77973 -10.9433,6.96682 -11.25013,7.08141 -0.30684,0.11458 -0.55787,-0.50405 -0.55787,-1.37451 0,-1.46526 -2.59097,-14.66765 -3.46198,-17.64185 -0.1384,-0.4726 -0.15875,-0.76047 0.53834,-0.791 z m -174.57501,40.97707 17.34155,6.76033 c 9.53829,3.71832 17.44919,6.8438 17.57956,6.94466 0.13035,0.10089 -1.51189,3.3577 -3.64995,7.23767 -14.83714,26.92547 -33.78242,46.35146 -56.29221,57.72171 -17.18696,8.68152 -35.28448,12.52187 -51.70966,10.97181 -7.53662,-0.71126 -9.76762,-0.35021 -10.29431,1.66385 -1.13841,4.35332 8.33251,16.45279 19.12865,24.43877 2.64371,1.95556 3.96545,3.2931 3.43755,3.4778 -0.47174,0.16513 -3.38946,0.74745 -6.48324,1.29396 -6.94384,1.22668 -21.73102,1.69508 -27.18781,0.86182 -12.44633,-1.90046 -28.88839,-9.8577 -40.71103,-19.70237 -4.37591,-3.64383 -13.6647,-13.31267 -13.6647,-14.22383 0,-0.2121 1.19533,-0.38752 2.65629,-0.3894 3.92764,-0.004 19.23484,-2.35285 26.4554,-4.05764 37.53131,-8.86135 72.97703,-31.23457 110.46774,-69.72749 z m 45.01405,17.41966 c 0.0976,0.001 0.19465,0.0212 0.29539,0.0512 4.94378,1.47537 17.74545,7.67016 22.59431,10.93396 6.55769,4.41412 6.40055,4.05213 4.88408,11.26113 -3.03876,14.44578 -11.38296,31.07142 -21.36867,42.57627 -15.10161,17.39898 -41.64908,31.86917 -65.48547,35.69378 -22.93081,3.67922 -41.25992,-1.25998 -55.96145,-15.07833 l -3.9661,-3.72682 8.71348,-0.36864 c 16.72519,-0.70788 31.69508,-4.84932 47.05262,-13.01654 24.19607,-12.86765 43.06528,-32.64924 58.22463,-61.03961 3.16313,-5.92392 4.07482,-7.31604 5.01718,-7.2865 z m 37.29782,22.53564 c 0.20883,0.001 0.50236,0.25505 0.96436,0.66899 0.68911,0.61737 2.85539,3.09188 4.81451,5.49815 9.20033,11.30018 14.26724,21.30241 17.57227,34.68793 1.24403,5.03813 1.46885,7.54709 1.4783,16.56272 0.008,9.07741 -0.19585,11.41804 -1.41359,16.07194 -3.19818,12.22259 -7.39756,19.80143 -15.35299,27.70544 -4.78439,4.75348 -6.63423,6.11406 -11.62733,8.55116 -6.51422,3.17949 -15.11074,6.06781 -22.73713,7.63926 -5.07784,1.04634 -14.89664,1.70202 -18.20092,1.21583 -13.50592,-1.98728 -27.32263,-7.60784 -38.60894,-15.70701 -4.61944,-3.31494 -16.07928,-14.06164 -16.07928,-15.07831 0,-0.24088 0.77344,-0.49833 1.71877,-0.57253 3.81234,-0.29893 12.1145,-2.27312 18.9065,-4.49589 32.52386,-10.64397 57.18365,-31.05654 70.09244,-58.02076 3.45009,-7.20659 7.02805,-17.46992 7.73575,-22.189 0.27563,-1.83822 0.38945,-2.53981 0.73728,-2.53792 z M 211.3539,283.6226 c 0.48494,0.0163 1.0235,0.13397 1.58325,0.35034 0.96786,0.37397 4.38318,1.19256 7.58921,1.81889 3.20604,0.62636 5.94353,1.25225 6.08286,1.39161 0.45047,0.45053 -8.02828,14.04472 -12.76142,20.46047 -5.88692,7.97974 -17.50201,19.25998 -24.9832,24.26302 -9.77121,6.53446 -19.41036,10.66726 -28.85539,12.372 -4.28127,0.7727 -15.57623,1.05519 -19.3752,0.48463 -9.7545,-1.465 -19.03847,-4.16798 -27.04747,-7.87609 l -5.48348,-2.53911 6.94955,-3.65972 c 20.80886,-10.95653 40.02064,-24.29737 54.33174,-37.72874 l 2.81256,-2.63918 7.1876,-0.3748 c 3.95315,-0.20596 9.71887,-0.82227 12.81264,-1.36837 5.87925,-1.03781 16.03132,-3.70567 17.89573,-4.70347 0.34518,-0.18472 0.77603,-0.26838 1.26102,-0.25148 z m 25.29326,5.37607 c 0.17294,-0.0188 1.11943,0.9342 2.17534,2.19729 4.19876,5.02246 14.90047,15.05129 19.78785,18.54271 5.82635,4.16224 16.35799,9.80053 21.40044,11.45767 l 3.43754,1.12913 -2.81253,0.44804 c -3.37535,0.53778 -28.65423,0.9872 -32.81294,0.76414 -10.0758,-0.54037 -27.05188,-4.36633 -29.22521,-5.66654 -0.26088,-0.1561 0.74558,-1.88231 2.23636,-3.83674 4.13869,-5.42584 7.36886,-10.38219 11.68223,-17.92866 2.16131,-3.78131 4.01045,-6.97518 4.11018,-7.09731 6e-4,-6.8e-4 0.001,-10e-4 0.004,-0.004 0.004,-10e-4 0.008,-0.004 0.0163,-0.007 z m 82.23864,38.57352 c 0.0928,0.0831 0.1904,0.18566 0.29419,0.31004 -0.10337,-0.12392 -0.20148,-0.22703 -0.29419,-0.31004 z M 360.15697,65.887092 c -20.13372,0.611215 -39.59186,8.981775 -52.8443,23.487668 -1.92195,2.103771 -8.85105,10.94238 -15.39824,19.64077 -28.48112,37.83906 -34.67012,45.27873 -52.38928,62.97477 -22.96773,22.93772 -47.56624,40.83515 -69.40443,50.49672 -16.7507,7.41079 -30.9787,11.06716 -54.36144,13.9726 -10.44455,1.29777 -11.91136,1.89825 -11.91136,4.87335 0,4.55673 17.20834,23.68324 27.75514,30.84877 9.72564,6.60767 22.08975,12.20938 30.90464,14.00235 l 2.39392,0.48707 -7.42648,5.89155 c -14.86742,11.79483 -29.90078,21.39254 -46.14252,29.45877 -9.45037,4.69338 -10.49628,5.36949 -10.85519,7.00352 -0.532394,2.42407 0.91825,3.90022 7.89577,8.03478 13.11417,7.77086 27.32109,12.14735 42.00812,12.94015 20.93515,1.13012 40.86861,-7.16213 60.52381,-25.17706 l 3.95381,-3.62353 2.08385,0.85778 c 3.39517,1.39933 15.61242,4.51302 23.15975,5.4567 6.95479,0.86961 10.71558,1.09045 25.3814,1.09059 h 18.19849 l 9.58042,-1.31156 0.0949,0.0772 3.5594,-0.43604 c 4.95897,-0.60744 19.20307,-2.83746 20.78606,-3.25403 0.16598,-0.0435 0.32442,-0.059 0.48948,-0.0184 l 11.26505,-2.68737 10e-4,10e-4 c 0.99656,-0.59913 2.95264,-1.42695 5.69072,-2.39629 19.94913,-7.06223 39.92805,-19.71927 56.57949,-35.84452 13.65498,-13.22342 23.20147,-25.82773 30.67892,-40.50522 11.04708,-21.68429 14.92618,-40.27337 15.78677,-75.65476 l 0.39797,-16.35942 4.00968,-2.33686 c 5.72354,-3.33606 26.47163,-17.28833 30.64802,-20.60904 4.09003,-3.25204 5.36667,-5.3677 4.0358,-6.69227 -0.67159,-0.66838 -23.83875,-5.93931 -45.69702,-10.39657 -1.31758,-0.26871 -2.08261,-1.22937 -3.88729,-4.88171 C 418.51351,86.702621 400.90229,72.813407 380.30965,67.922679 373.65316,66.341774 366.86688,65.683805 360.1556,65.88754 Z m 0.23641,10.043743 c 5.44195,-0.147788 10.89712,0.217718 15.30799,1.126246 13.32296,2.744381 22.43194,7.67988 31.98222,17.328854 8.85291,8.944415 14.01341,18.360385 17.64604,32.194845 2.74077,10.43791 3.44619,17.65052 3.39425,34.71234 -0.10007,32.77087 -2.97015,50.76805 -11.12251,69.73832 -7.60543,17.69755 -20.49518,35.02958 -36.9387,49.66978 -3.18308,2.83402 -7.30192,6.32137 -9.15271,7.75082 l -3.36455,2.59946 2.55902,-5.24998 c 4.7267,-9.69778 7.28263,-23.11964 6.67564,-35.05683 -1.08102,-21.26116 -9.45162,-40.03366 -25.04993,-56.17917 -7.58272,-7.84867 -15.93845,-14.41272 -23.79894,-18.69743 -4.10124,-2.23561 -50.60759,-20.872 -56.3419,-22.57764 -0.58547,-0.17404 -1.0645,-0.54246 -1.0645,-0.81856 0,-0.27612 2.25825,-3.33323 5.01832,-6.79326 2.76006,-3.46003 11.72458,-15.16635 19.92116,-26.01463 8.19655,-10.8483 16.54522,-21.492649 18.55253,-23.654006 7.84779,-8.449894 19.05221,-15.09745 30.54942,-18.123649 4.35697,-1.146826 9.78526,-1.80765 15.22715,-1.95551 z m 16.74313,43.735525 c -2.94864,-0.0372 -5.96789,0.65398 -7.97414,1.98168 -3.11673,2.06254 -5.68585,6.38562 -6.0507,10.18271 -0.50635,5.26952 3.27654,11.2649 8.3971,13.30851 2.3257,0.92817 8.28895,0.78082 10.79815,-0.26731 4.82285,-2.01465 11.91946,-8.50374 8.02763,-12.00045 -3.35837,-3.01741 -7.81275,-2.10792 -12.25518,-9.09744 -0.85238,-1.3411 0.82637,-4.0854 -0.94286,-4.1077 z m 57.20324,0.68908 c 1.13073,-0.0497 4.20234,0.59542 11.92324,2.25966 7.05087,1.51979 12.82021,2.91534 12.82021,3.1008 0,0.18554 -4.68272,3.34638 -10.4061,7.02488 -5.72336,3.67857 -10.6504,6.78035 -10.94903,6.89187 -0.29861,0.11152 -0.54294,-0.49054 -0.54294,-1.33772 0,-1.42603 -2.52162,-14.27507 -3.3693,-17.16965 -0.13471,-0.45995 -0.15451,-0.74013 0.52392,-0.76984 z m -169.90247,39.88032 16.87739,6.5794 c 9.28301,3.6188 16.98217,6.6606 17.10906,6.75877 0.12685,0.0982 -1.47145,3.26782 -3.55226,7.04395 -14.44003,26.2048 -32.87824,45.11087 -54.78554,56.17676 -16.72696,8.44918 -34.3401,12.18674 -50.32564,10.67816 -7.33491,-0.69221 -9.5062,-0.34084 -10.0188,1.61932 -1.10793,4.2368 8.1095,16.01243 18.61668,23.78466 2.57296,1.90321 3.85931,3.20496 3.34554,3.38473 -0.45912,0.1607 -3.29874,0.72743 -6.30972,1.25932 -6.75798,1.19384 -21.14937,1.64971 -26.46012,0.83875 -12.1132,-1.8496 -28.11518,-9.59385 -39.62137,-19.17503 -4.2588,-3.5463 -13.29898,-12.95635 -13.29898,-13.84312 0,-0.20644 1.16335,-0.37715 2.58519,-0.37897 3.82253,-0.004 18.72002,-2.28989 25.74732,-3.94905 36.52678,-8.62418 71.02378,-30.39857 107.51105,-67.86123 z m 43.80924,16.95341 c 0.095,0.001 0.18943,0.0207 0.28748,0.0498 4.81145,1.43586 17.27049,7.46485 21.98957,10.6413 6.38217,4.29598 6.22924,3.94368 4.75336,10.95972 -2.95743,14.05913 -11.07829,30.2398 -20.79673,41.4367 -14.69742,16.9333 -40.53434,31.01621 -63.73275,34.73843 -22.31705,3.58076 -40.15559,-1.22624 -54.46362,-14.67474 l -3.85995,-3.62709 8.48027,-0.35878 c 16.27754,-0.68892 30.84674,-4.7195 45.79323,-12.66814 23.54847,-12.52323 41.91264,-31.77537 56.66624,-59.40586 3.07847,-5.76536 3.96576,-7.12023 4.8829,-7.09147 z m 36.29953,21.93249 c 0.20323,0.001 0.48892,0.24821 0.93856,0.65107 0.67066,0.60085 2.77896,3.00913 4.68564,5.351 8.95409,10.99771 13.88539,20.73224 17.10195,33.7595 1.21073,4.90328 1.42953,7.34507 1.43872,16.1194 0.008,8.83446 -0.1906,11.11244 -1.37575,15.64178 -3.11258,11.89544 -7.19956,19.27144 -14.94206,26.96391 -4.65634,4.62623 -6.45666,5.95039 -11.31613,8.32227 -6.33985,3.09439 -14.70629,5.90541 -22.12856,7.43479 -4.94193,1.01835 -14.49792,1.65648 -17.71377,1.18329 -13.14443,-1.93409 -26.59133,-7.40421 -37.57555,-15.2866 -4.49581,-3.22623 -15.64892,-13.68527 -15.64892,-14.67474 0,-0.23444 0.75273,-0.48501 1.67276,-0.5572 3.7103,-0.29094 11.79025,-2.21228 18.40046,-4.37557 31.65336,-10.35907 55.65312,-30.2253 68.21641,-56.46781 3.35773,-7.01371 6.83994,-17.00233 7.52869,-21.59511 0.26826,-1.78904 0.37903,-2.47182 0.71755,-2.46998 z m -130.50803,82.0536 c 0.47194,0.0159 0.99609,0.13037 1.54087,0.34096 0.94195,0.36395 4.26586,1.16062 7.38608,1.7702 3.12023,0.6096 5.78444,1.21873 5.92005,1.35437 0.43842,0.43846 -7.8134,13.6688 -12.41984,19.91284 -5.72936,7.76615 -17.03358,18.74447 -24.31454,23.61361 -9.50968,6.35957 -18.89083,10.38175 -28.08306,12.04084 -4.16669,0.75204 -15.15933,1.02696 -18.85663,0.47168 -9.49341,-1.4258 -18.52889,-4.05643 -26.32354,-7.6653 l -5.3367,-2.47114 6.76354,-3.56177 c 20.2519,-10.66327 38.94948,-23.64704 52.87753,-36.71893 l 2.73729,-2.56854 6.99522,-0.36475 c 3.84735,-0.20045 9.45874,-0.80028 12.4697,-1.33177 5.7219,-1.01002 15.60225,-3.60648 17.41676,-4.57756 0.33593,-0.17979 0.75526,-0.2612 1.22727,-0.24474 z m 24.61628,5.23216 c 0.1683,-0.0183 1.08945,0.90921 2.11712,2.13849 4.08637,4.88804 14.50164,14.64844 19.25822,18.04641 5.67041,4.05082 15.92015,9.53821 20.82765,11.15099 l 3.34554,1.09893 -2.73727,0.43604 c -3.28499,0.52337 -27.88728,0.96078 -31.93468,0.74369 -9.80613,-0.5259 -26.32783,-4.24947 -28.443,-5.51488 -0.25388,-0.15192 0.72562,-1.83194 2.1765,-3.73404 4.02793,-5.28062 7.17163,-10.10431 11.36957,-17.44882 2.10345,-3.68008 3.9031,-6.78847 4.00016,-6.90732 5.9e-4,-6.9e-4 0.001,-10e-4 0.004,-0.004 0.004,-0.001 0.008,-0.004 0.0159,-0.007 z m 80.0375,37.54109 c 0.0903,0.0808 0.1853,0.18069 0.28632,0.30174 -0.10054,-0.12061 -0.1961,-0.22095 -0.28632,-0.30174 z M 361.0312,61.544837 c -20.5044,0.622461 -40.3208,9.147134 -53.81723,23.920093 -1.95734,2.142514 -9.014,11.143854 -15.68173,20.00238 -29.0055,38.53573 -35.30844,46.11238 -53.35384,64.13421 -23.39058,23.36004 -48.44199,41.58698 -70.68225,51.42644 -17.05909,7.54722 -31.54906,11.27092 -55.3623,14.22984 -10.63684,1.32167 -12.13066,1.93321 -12.13066,4.96309 0,4.64062 17.52516,24.11926 28.26615,31.41672 9.9047,6.72933 22.49644,12.43416 31.47362,14.26015 l 2.438,0.49604 -7.5632,6.00002 c -15.14115,12.01199 -30.45129,21.78641 -46.99207,30.00114 -9.624364,4.77978 -10.689534,5.46835 -11.055054,7.13247 -0.54219,2.4687 0.93517,3.97202 8.041144,8.18271 13.35562,7.91393 27.82412,12.37099 42.78155,13.17839 21.32059,1.15092 41.62104,-7.29399 61.63812,-25.6406 l 4.02661,-3.69024 2.12221,0.87356 c 3.45769,1.4251 15.89986,4.59612 23.58616,5.55717 7.08283,0.88562 10.91287,1.11053 25.8487,1.11068 h 18.53354 l 9.75681,-1.33572 0.0966,0.0786 3.62494,-0.44407 c 5.05027,-0.61861 19.55662,-2.8897 21.16875,-3.31394 0.16903,-0.0444 0.3304,-0.0601 0.4985,-0.0188 l 11.47245,-2.73686 10e-4,0.001 c 1.01491,-0.61015 3.00701,-1.45322 5.7955,-2.4404 20.31642,-7.19226 40.66317,-20.08233 57.62118,-36.50446 13.90638,-13.46689 23.62864,-26.30325 31.24376,-41.25098 11.25046,-22.08352 15.20098,-41.01484 16.07742,-77.04765 l 0.4053,-16.66062 4.0835,-2.37989 c 5.82892,-3.39747 26.959,-17.60662 31.21228,-20.98846 4.16534,-3.31192 5.46549,-5.46653 4.11011,-6.8155 -0.68396,-0.68068 -24.27764,-6.04864 -46.53836,-10.58797 -1.34184,-0.27366 -2.12095,-1.25201 -3.95886,-4.97159 C 420.46215,82.74356 402.52669,68.598632 381.55491,63.617855 374.77587,62.00785 367.86464,61.337762 361.0298,61.54525 Z m 0.24076,10.228656 c 5.54215,-0.150514 11.09775,0.22173 15.58983,1.146979 13.56826,2.794911 22.84495,7.821273 32.57105,17.647903 9.01591,9.10909 14.27141,18.698415 17.97093,32.787595 2.79123,10.63008 3.50963,17.97548 3.45673,35.35142 -0.10196,33.37423 -3.02483,51.70276 -11.32728,71.02229 -7.74545,18.02339 -20.87252,35.67453 -37.61878,50.58427 -3.24169,2.88619 -7.43637,6.43775 -9.32122,7.89351 l -3.4265,2.64732 2.60613,-5.34664 c 4.81372,-9.87633 7.41671,-23.54529 6.79854,-35.70226 -1.10091,-21.6526 -9.62563,-40.77072 -25.51112,-57.2135 -7.72234,-7.99317 -16.23189,-14.67807 -24.23711,-19.04167 -4.17674,-2.27677 -51.53933,-21.25627 -57.37923,-22.99333 -0.59624,-0.17723 -1.08409,-0.55243 -1.08409,-0.83363 0,-0.2812 2.29983,-3.39458 5.11071,-6.91832 2.81088,-3.52373 11.94045,-15.44558 20.28793,-26.4936 8.34747,-11.04803 16.84984,-21.888346 18.89411,-24.089494 7.99227,-8.605473 19.40299,-15.375421 31.11187,-18.45733 4.43718,-1.167937 9.96543,-1.840927 15.5075,-1.991513 z m 17.05139,45.460817 c -1.98431,-2.25421 -6.07776,-0.25405 -8.12095,1.09809 -3.17411,2.10051 -5.79053,6.50319 -6.1621,10.37019 -0.51568,5.36653 3.33686,11.47229 8.55171,13.55354 2.36851,0.94526 8.44155,0.79519 10.99694,-0.27223 4.91165,-2.05175 8.15084,-6.89318 8.17543,-12.22141 0.0251,-5.45821 -7.68541,-6.45567 -12.58444,-8.32659 -1.51182,-0.57736 0.94521,-2.15472 -0.85659,-4.20159 z m 58.25642,-0.2183 c 1.15156,-0.0506 4.27972,0.60638 12.14276,2.30125 7.18069,1.54777 13.05624,2.96903 13.05624,3.1579 0,0.18896 -4.76893,3.40799 -10.59768,7.15423 -5.82873,3.74628 -10.84649,6.90516 -11.15061,7.01874 -0.30411,0.11352 -0.55293,-0.49957 -0.55293,-1.36235 0,-1.45229 -2.56805,-14.53789 -3.43135,-17.48576 -0.13718,-0.46842 -0.15734,-0.75376 0.53357,-0.78401 z m -173.03058,40.61457 17.18813,6.70052 c 9.45391,3.68544 17.29482,6.78324 17.42405,6.88321 0.12919,0.0999 -1.49853,3.32799 -3.61766,7.17364 -14.70588,26.68726 -33.48356,45.94142 -55.7942,57.21105 -17.03493,8.60473 -34.97234,12.41111 -51.25221,10.87475 -7.46995,-0.70495 -9.68121,-0.34712 -10.20325,1.64913 -1.12833,4.31482 8.2588,16.30724 18.95944,24.22257 2.62032,1.93825 3.93036,3.26397 3.40714,3.44704 -0.46758,0.16366 -3.35948,0.74082 -6.42589,1.28251 -6.88241,1.21582 -21.53876,1.68008 -26.94729,0.85419 -12.33622,-1.88365 -28.63281,-9.77049 -40.35085,-19.52806 -4.33721,-3.61159 -13.54382,-13.1949 -13.54382,-14.09798 0,-0.21025 1.18476,-0.38411 2.63278,-0.38596 3.89291,-0.004 19.06468,-2.33204 26.22136,-4.02176 37.19928,-8.78296 72.33142,-30.95824 109.49046,-69.11063 z m 44.61582,17.26553 c 0.0968,0.001 0.19293,0.021 0.29279,0.0507 4.90002,1.4623 17.58844,7.60229 22.39441,10.83723 6.49968,4.37507 6.34393,4.01628 4.84087,11.16149 -3.01187,14.31798 -11.28225,30.79655 -21.17962,42.1996 -14.96801,17.24507 -41.28061,31.58725 -64.90615,35.37802 -22.72793,3.64669 -40.89489,-1.24882 -55.46636,-14.94493 l -3.93101,-3.69387 8.6364,-0.36539 c 16.57722,-0.7016 31.41467,-4.80639 46.63634,-12.90137 23.98203,-12.7538 42.68431,-32.36039 57.70953,-60.49959 3.13516,-5.87151 4.03878,-7.25133 4.9728,-7.22204 z m 36.96786,22.3363 c 0.20696,0.001 0.49792,0.25277 0.95583,0.66306 0.68301,0.6119 2.83012,3.06453 4.77191,5.4495 9.11894,11.2002 14.14103,21.11395 17.41682,34.38106 1.23302,4.99357 1.45585,7.48031 1.46521,16.41618 0.008,8.99712 -0.19411,11.31703 -1.40108,15.92977 -3.16988,12.11445 -7.33211,19.62624 -15.21716,27.46034 -4.74207,4.71141 -6.57554,6.05995 -11.52447,8.4755 -6.45658,3.15136 -14.97706,6.01413 -22.53598,7.57167 -5.03291,1.03709 -14.76485,1.68698 -18.0399,1.20509 -13.38643,-1.96971 -27.08091,-7.54054 -38.26736,-15.56806 -4.57859,-3.28562 -15.93703,-13.93723 -15.93703,-14.94491 0,-0.23876 0.76658,-0.49394 1.70355,-0.56747 3.77861,-0.2963 12.00732,-2.253 18.73924,-4.45613 32.23613,-10.54979 56.67776,-30.78179 69.47235,-57.50744 3.41955,-7.14284 6.96587,-17.31537 7.66731,-21.9927 0.27319,-1.82199 0.38601,-2.51734 0.73076,-2.51546 z m -132.91085,83.5643 c 0.48063,0.0163 1.01444,0.13277 1.56925,0.34724 0.95928,0.37065 4.34439,1.18199 7.52206,1.80279 3.17768,0.62082 5.89094,1.24117 6.02904,1.37931 0.4465,0.44653 -7.95724,13.92046 -12.6485,20.27945 -5.83484,7.90914 -17.34719,19.08959 -24.76219,24.04837 -9.68477,6.47666 -19.23864,10.57289 -28.60012,12.26253 -4.2434,0.76589 -15.43843,1.04586 -19.2038,0.48036 -9.66819,-1.45205 -18.87002,-4.13111 -26.80819,-7.80642 l -5.43495,-2.51664 6.88807,-3.62735 c 20.62476,-10.85959 39.66658,-24.0824 53.85107,-37.39496 l 2.78769,-2.61583 7.12401,-0.37147 c 3.91817,-0.20415 9.63287,-0.81502 12.69928,-1.35629 5.82723,-1.02861 15.8895,-3.67288 17.73742,-4.66184 0.34211,-0.18311 0.76916,-0.26602 1.24986,-0.24925 z m 25.06949,5.32849 c 0.17141,-0.0186 1.10952,0.92596 2.15611,2.17787 4.1616,4.97802 14.76863,14.91813 19.61278,18.37866 5.7748,4.1254 16.21326,9.71383 21.21111,11.3563 l 3.40714,1.11915 -2.78766,0.44408 c -3.34547,0.533 -28.40072,0.97846 -32.52264,0.75737 -9.98668,-0.53557 -26.81256,-4.3277 -28.96667,-5.61641 -0.25856,-0.15471 0.73898,-1.86566 2.21657,-3.80278 4.10208,-5.37785 7.30367,-10.29035 11.5789,-17.77008 2.14218,-3.74784 3.97496,-6.91346 4.07381,-7.03449 6e-4,-7e-4 0.001,-10e-4 0.004,-0.004 0.004,-0.001 0.008,-0.004 0.0163,-0.007 z m 81.51109,38.23227 c 0.0919,0.0824 0.18872,0.18402 0.2916,0.3073 -0.10242,-0.12284 -0.19971,-0.22503 -0.2916,-0.3073 z"
       sodipodi:nodetypes="cssssssscccsssscccsccccsscccssssccsssssccscsscssccccsscssssssssssccsscssssssccssssssssscssccscccsssscccsscccssscssssssscssscccssssssccccccssccssccscsssscccccccssssssscccsssscccsccccscccccsssccsssssccccsscsscccssscssscsccsssscssccssssssccsscsssscscssccscccsssccccsscccssscsssssssccsscccssssssccccccsscccsccsssssscccccccssssssscccsssscccsccccscccccsssccssscsccscsscsscccssscssscsssssssssscsssssscccsssssssscssccscccsssscccsscccssscssssssscssscccssssssccccccssccssccsssssscccccccssssssscccsssscccsccccssccccsssccssscsccscsscssccccsscssscssssssscsscssssssccssssssssscssccscccsssscccsscccssscssssssscssscccssssssccccccssccssccscsssscccccc" />
  </g>
</svg>
