<?xml version="1.0" encoding="UTF-8" standalone="no"?>
<!-- Created with Inkscape (http://www.inkscape.org/) -->

<svg
   width="650mm"
   height="650mm"
   viewBox="0 0 650 650"
   version="1.1"
   id="svg1"
   inkscape:version="1.4.2 (f4327f4, 2025-05-13)"
   sodipodi:docname="kokokita_irodori_white.svg"
   inkscape:export-filename="kokita_irodori_ios_icon.png"
   inkscape:export-xdpi="32.512001"
   inkscape:export-ydpi="32.512001"
   xmlns:inkscape="http://www.inkscape.org/namespaces/inkscape"
   xmlns:sodipodi="http://sodipodi.sourceforge.net/DTD/sodipodi-0.dtd"
   xmlns="http://www.w3.org/2000/svg"
   xmlns:svg="http://www.w3.org/2000/svg">
  <sodipodi:namedview
     id="namedview1"
     pagecolor="#ffffff"
     bordercolor="#000000"
     borderopacity="0.25"
     inkscape:showpageshadow="2"
     inkscape:pageopacity="0.0"
     inkscape:pagecheckerboard="false"
     inkscape:deskcolor="#d1d1d1"
     inkscape:document-units="mm"
     inkscape:zoom="0.17972959"
     inkscape:cx="945.8654"
     inkscape:cy="1321.4296"
     inkscape:window-width="1920"
     inkscape:window-height="1009"
     inkscape:window-x="-8"
     inkscape:window-y="-8"
     inkscape:window-maximized="1"
     inkscape:current-layer="g32"
     showborder="true"
     inkscape:lockguides="false"
     showgrid="true"
     inkscape:export-bgcolor="#007affff">
    <inkscape:grid
       id="grid12"
       units="mm"
       originx="0"
       originy="0"
       spacingx="0.99999999"
       spacingy="0.99999999"
       empcolor="#0099e5"
       empopacity="0.30196078"
       color="#0099e5"
       opacity="0.14901961"
       empspacing="5"
       enabled="false"
       visible="true" />
    <inkscape:grid
       type="axonomgrid"
       id="grid13"
       units="mm"
       originx="0"
       originy="0"
       spacingx="0.99999999"
       spacingy="0.99999999"
       empcolor="#0099e5"
       empopacity="0.30196078"
       color="#0099e5"
       opacity="0.14901961"
       empspacing="5"
       dotted="false"
       gridanglex="30"
       gridanglez="30"
       enabled="false"
       visible="true" />
    <inkscape:grid
       type="modular"
       id="grid14"
       units="mm"
       originx="0"
       originy="0"
       spacingx="40"
       spacingy="40"
       empcolor="#0047cb"
       empopacity="0.30196078"
       color="#0099e5"
       opacity="0.14901961"
       empspacing="0"
       marginx="0"
       marginy="0"
       gapx="9.9999999"
       gapy="9.9999999"
       enabled="false"
       visible="true" />
    <inkscape:grid
       id="grid15"
       units="mm"
       originx="0"
       originy="0"
       spacingx="0.99999999"
       spacingy="0.99999999"
       empcolor="#0099e5"
       empopacity="0.30196078"
       color="#0099e5"
       opacity="0.14901961"
       empspacing="5"
       enabled="false"
       visible="true" />
    <inkscape:grid
       id="grid16"
       units="mm"
       originx="0"
       originy="0"
       spacingx="0.99999999"
       spacingy="0.99999999"
       empcolor="#0099e5"
       empopacity="0.30196078"
       color="#0099e5"
       opacity="0.14901961"
       empspacing="5"
       enabled="false"
       visible="true" />
    <inkscape:grid
       type="modular"
       id="grid17"
       units="mm"
       originx="0"
       originy="0"
       spacingx="40"
       spacingy="40"
       empcolor="#0047cb"
       empopacity="0.30196078"
       color="#0099e5"
       opacity="0.14901961"
       empspacing="0"
       marginx="0"
       marginy="0"
       gapx="9.9999999"
       gapy="9.9999999"
       enabled="false"
       visible="true" />
    <inkscape:grid
       id="grid18"
       units="mm"
       originx="0"
       originy="0"
       spacingx="0.99999999"
       spacingy="0.99999999"
       empcolor="#0099e5"
       empopacity="0.30196078"
       color="#0099e5"
       opacity="0.14901961"
       empspacing="5"
       enabled="false"
       visible="false" />
  </sodipodi:namedview>
  <defs
     id="defs1">
    <inkscape:path-effect
       effect="powerstroke"
       message=""
       id="path-effect33"
       is_visible="true"
       lpeversion="1.3"
       scale_width="0.9"
       interpolator_type="CubicBezierJohan"
       interpolator_beta="0"
       start_linecap_type="square"
       end_linecap_type="zerowidth"
       offset_points="0.19864189,0.13607494 | 0.51435763,0.13634942 | 0.8,0.1322915"
       linejoin_type="round"
       miter_limit="4"
       not_jump="false"
       sort_points="true" />
    <inkscape:path-effect
       effect="powerstroke"
       message=""
       id="path-effect30"
       is_visible="true"
       lpeversion="1.3"
       scale_width="0.9"
       interpolator_type="CubicBezierJohan"
       interpolator_beta="0"
       start_linecap_type="square"
       end_linecap_type="zerowidth"
       offset_points="0.19864189,0.13607494 | 0.51435763,0.13634942 | 0.8,0.1322915"
       linejoin_type="round"
       miter_limit="4"
       not_jump="false"
       sort_points="true" />
    <linearGradient
       id="swatch24"
       inkscape:swatch="solid">
      <stop
         style="stop-color:#000000;stop-opacity:1;"
         offset="0"
         id="stop24" />
    </linearGradient>
    <inkscape:path-effect
       effect="powerstroke"
       message=""
       id="path-effect11"
       is_visible="true"
       lpeversion="1.3"
       scale_width="0.9"
       interpolator_type="CubicBezierJohan"
       interpolator_beta="0"
       start_linecap_type="square"
       end_linecap_type="zerowidth"
       offset_points="0.19864189,0.13607494 | 0.51435763,0.13634942 | 0.8,0.1322915"
       linejoin_type="round"
       miter_limit="4"
       not_jump="false"
       sort_points="true" />
    <inkscape:path-effect
       effect="taper_stroke"
       start_shape="center | center"
       end_shape="center | center"
       id="path-effect3"
       is_visible="true"
       lpeversion="1"
       stroke_width="0.51288801"
       subpath="1"
       attach_start="0.49941342"
       end_offset="0.87140956"
       start_smoothing="0.5"
       end_smoothing="0.5"
       jointype="extrapolated"
       miter_limit="100" />
    <inkscape:path-effect
       effect="fill_between_many"
       method="bsplinespiro"
       autoreverse="false"
       close="false"
       join="false"
       linkedpaths="#rect1,0,1"
       id="path-effect4"
       is_visible="true"
       lpeversion="0" />
    <inkscape:path-effect
       effect="fill_between_many"
       method="bsplinespiro"
       autoreverse="false"
       close="false"
       join="false"
       linkedpaths="#path11,0,1"
       id="path-effect12"
       is_visible="true"
       lpeversion="0" />
  </defs>
  <g
     inkscape:label="v1_white"
     inkscape:groupmode="layer"
     id="g32"
     transform="translate(28.706322,-11.072654)"
     style="display:inline">
    <path
       style="fill:#ffffff;fill-opacity:1;fill-rule:nonzero;stroke:none;stroke-width:2.587;stroke-dasharray:none"
       d="m 118.01507,128.10611 c 0,0 0,-0.0273 0,0.21218 0,0.25194 0,0.86047 0,1.85998 -10e-6,1.99903 -2e-5,5.63142 -2e-5,5.63142 0,0 -2e-5,1.04833 -4e-5,2.94482 0,-0.39009 -1.1e-4,8.48699 -1e-4,8.0969 -4e-5,3.24826 -1.7e-4,15.56695 -2e-4,18.81521 -10e-6,1.03009 -2e-5,1.62102 -2e-5,1.62102 0,0 4.7e-4,4.36856 0.001,9.69032 -7e-5,-0.62382 0.002,15.26915 0.002,14.64532 3.7e-4,2.52869 6.2e-4,3.97396 6.2e-4,3.97396 0,0 0.0205,2.62041 0.0446,4.67523 0.0126,1.07576 0.025,1.90363 0.0372,2.4769 0.007,0.32326 0.0131,0.53796 0.0186,0.68085 0.0107,0.27631 0.0186,0.27267 0.0186,0.27267 0,0 0.008,0.004 0.0186,-0.27267 0.006,-0.14289 0.0117,-0.35759 0.0186,-0.68085 0.0122,-0.57327 0.0246,-1.40114 0.0372,-2.4769 0.0242,-2.05482 0.0447,-4.67523 0.0447,-4.67523 0,0 2.7e-4,-1.44527 6.5e-4,-3.97395 6e-5,-0.34559 0.002,-14.29974 0.002,-14.64532 6.5e-4,-5.32177 0.001,-9.69033 0.001,-9.69033 0,0 0,-0.59079 -1e-5,-1.62101 6e-5,16.94869 -1.3e-4,-35.76392 -7e-5,-18.81522 0,-0.48723 -4e-5,-7.60966 -4e-5,-8.0969 -1e-5,-1.89649 -2e-5,-2.94482 -2e-5,-2.94482 0,0 1e-5,-3.63238 2e-5,-5.63141 0,-0.99952 10e-6,-1.60805 10e-6,-1.85999 0,-0.23946 0,-0.21218 0,-0.21218 l 0,-0.12247 -0.24494,0 z"
       id="path31"
       inkscape:linked-fill="path12"
       transform="matrix(109.5357,0,0,3.0628651,-12643.97,-107.77417)"
       sodipodi:nodetypes="cc"
       inkscape:original-d="m 118.13754,128.10611 c 0,0 -2.6e-4,74.96245 -2.6e-4,75.59678"
       inkscape:path-effect="#path-effect33"
       inkscape:label="ピン" />
    <path
       style="fill:#ffffff;fill-opacity:0;stroke:#ffffff;stroke-width:40;stroke-dasharray:none;stroke-opacity:1"
       id="path32"
       sodipodi:type="arc"
       sodipodi:cx="296.29367"
       sodipodi:cy="500.35464"
       sodipodi:rx="252.00635"
       sodipodi:ry="86.843971"
       sodipodi:start="4.8694686"
       sodipodi:end="4.5553093"
       sodipodi:arc-type="arc"
       d="M 335.71615,414.57987 A 252.00635,86.843971 0 0 1 547.52317,507.16834 252.00635,86.843971 0 0 1 296.29367,587.19862 252.00635,86.843971 0 0 1 45.064175,507.16835 252.00635,86.843971 0 0 1 256.87118,414.57987"
       sodipodi:open="true"
       inkscape:label="弧" />
    <path
       id="path3"
       style="display:inline;fill:#ffffff;fill-opacity:1;stroke-width:101.841;stroke-dasharray:none"
       inkscape:label="胴体"
       d="m 355.3267,61.10501 c -17.37596,0.52749 -34.16889,7.75152 -45.60612,20.27051 -1.6587,1.815622 -7.6387,9.443592 -13.28911,16.950542 -24.58001,32.656178 -29.92129,39.076828 -45.21343,54.348998 -19.82179,19.7959 -41.051,35.24189 -59.89798,43.5801 -14.45632,6.39571 -26.73549,9.55127 -46.91545,12.05874 -9.01394,1.12002 -10.27984,1.63825 -10.27984,4.20585 0,3.93258 14.85128,20.43929 23.95347,26.62335 8.3935,5.70261 19.06407,10.53703 26.67157,12.08442 l 2.06602,0.42036 -6.40925,5.08457 c -12.83101,10.17927 -25.80522,18.46237 -39.82231,25.42375 -8.15593,4.05051 -9.05858,4.63402 -9.36833,6.04424 -0.45947,2.09204 0.79248,3.36599 6.81427,6.93424 11.3179,6.70647 23.57888,10.4835 36.2542,11.16771 18.06762,0.97532 35.27075,-6.18112 52.23375,-21.72851 l 3.41225,-3.12721 1.79842,0.74028 c 2.93013,1.20767 13.47395,3.89487 19.98752,4.70929 6.00218,0.7505 9.24785,0.94109 21.90486,0.94122 h 15.70581 l 8.26817,-1.13192 0.0819,0.0666 3.07187,-0.37632 c 4.27973,-0.52423 16.57279,-2.44881 17.93895,-2.80832 0.14324,-0.0376 0.27999,-0.0509 0.42244,-0.0159 l 9.72205,-2.31928 10e-4,9.2e-4 c 0.86006,-0.51706 2.54822,-1.2315 4.91126,-2.06806 17.21666,-6.09491 34.45903,-17.01829 48.82969,-30.93483 11.78463,-11.41219 20.02352,-22.29006 26.47677,-34.95715 9.53394,-18.71415 12.88171,-34.75705 13.62443,-65.29219 l 0.34346,-14.11864 3.46046,-2.01678 c 4.93958,-2.87911 22.84576,-14.92031 26.4501,-17.78617 3.52982,-2.80661 4.6316,-4.63248 3.48302,-5.77563 -0.57961,-0.57683 -20.57351,-5.12578 -39.43782,-8.972528 -1.13711,-0.2319 -1.79735,-1.06098 -3.35484,-4.21305 C 405.69004,79.06936 390.49106,67.08258 372.71903,62.86174 366.97429,61.49738 361.11754,60.92953 355.32552,61.10536 Z m 0.20403,8.66803 c 4.69656,-0.12755 9.40452,0.1879 13.21123,0.97198 11.49809,2.36848 19.3594,6.62795 27.60155,14.955292 7.64032,7.71928 12.09397,15.845528 15.22904,27.785058 2.36536,9.00821 2.97415,15.23289 2.92932,29.95772 -0.0864,28.28219 -2.56332,43.81426 -9.59903,60.18614 -6.5637,15.27349 -17.68792,30.23152 -31.87914,42.86642 -2.74709,2.44584 -6.30177,5.45552 -7.89904,6.68917 l -2.90371,2.24341 2.20851,-4.53088 c 4.07927,-8.36946 6.28511,-19.9529 5.76126,-30.25503 -0.93294,-18.34898 -8.15701,-34.55017 -21.61879,-48.48421 -6.54411,-6.77362 -13.75533,-12.43858 -20.53916,-16.13641 -3.53948,-1.92939 -43.67577,-18.01311 -48.62465,-19.48514 -0.50527,-0.15019 -0.91869,-0.46815 -0.91869,-0.70644 0,-0.2383 1.94894,-2.87666 4.33095,-5.86277 2.38201,-2.9861 10.11865,-13.08898 17.19252,-22.45136 7.07386,-9.362388 14.27899,-18.548758 16.01136,-20.414068 6.77286,-7.292502 16.4426,-13.029532 26.36501,-15.641222 3.76018,-0.98974 8.44496,-1.56005 13.14146,-1.68766 z m 14.44979,37.74499 c -2.54475,-0.0321 -5.15045,0.5644 -6.8819,1.71024 -2.68983,1.78003 -4.90705,5.51097 -5.22193,8.78797 -0.437,4.54774 2.82774,9.72192 7.24694,11.48562 2.00714,0.80104 7.15359,0.67387 9.3191,-0.23069 4.16226,-1.73871 6.90723,-5.84146 6.92807,-10.35674 0.0213,-4.62543 -2.92622,-9.0573 -7.07779,-10.64277 -1.28115,-0.48927 -2.7856,-0.73439 -4.31249,-0.75363 z m 49.36801,0.5947 c 0.97586,-0.0429 3.62674,0.51386 10.29009,1.95014 6.0851,1.31162 11.0642,2.51603 11.0642,2.67608 0,0.16013 -4.04132,2.88802 -8.98075,6.06268 -4.93942,3.1747 -9.1916,5.85162 -9.44932,5.94787 -0.25771,0.0962 -0.46857,-0.42335 -0.46857,-1.15449 0,-1.23071 -2.17623,-12.31979 -2.90781,-14.81789 -0.11625,-0.39695 -0.13334,-0.63876 0.45216,-0.66439 z m -146.63062,34.41784 14.56567,5.6782 c 8.01149,3.12313 14.65608,5.74829 14.76559,5.83301 0.10948,0.0847 -1.26989,2.82022 -3.0657,6.07913 -12.46214,22.61548 -28.37484,38.93195 -47.28146,48.48213 -14.43584,7.29187 -29.63647,10.5175 -43.43245,9.21555 -6.33023,-0.5974 -8.20411,-0.29416 -8.6465,1.39751 -0.95618,3.65649 6.99872,13.81918 16.06672,20.52684 2.22053,1.64252 3.33069,2.76597 2.8873,2.92111 -0.39624,0.13869 -2.84691,0.62779 -5.44547,1.08683 -5.83233,1.03032 -18.2525,1.42375 -22.83583,0.72387 -10.45404,-1.59626 -24.26419,-8.27977 -34.19436,-16.54859 -3.67547,-3.06056 -11.47739,-11.1817 -11.47739,-11.947 0,-0.17817 1.004,-0.3255 2.23109,-0.32707 3.29895,-0.003 16.1559,-1.97623 22.22066,-3.40814 31.52364,-7.44291 61.29553,-26.23482 92.78507,-58.56615 z m 37.80861,14.63126 c 0.082,0.001 0.16349,0.0178 0.24811,0.043 4.15241,1.23919 14.90491,6.44238 18.97761,9.18375 5.508,3.70755 5.37601,3.4035 4.10228,9.45854 -2.55234,12.13343 -9.56087,26.0978 -17.94816,35.76104 -12.68428,14.61392 -34.98227,26.76786 -55.00316,29.98025 -19.26024,3.0903 -34.6554,-1.05828 -47.00364,-12.66472 l -3.33124,-3.13028 7.31871,-0.30964 c 14.04797,-0.59456 26.62161,-4.07306 39.52085,-10.93296 20.32299,-10.8079 36.17179,-27.42304 48.90456,-51.26893 2.65681,-4.97567 3.42256,-6.14496 4.21408,-6.12014 z m 31.32752,18.92836 c 0.17539,9.4e-4 0.42195,0.21421 0.81,0.5619 0.5788,0.51854 2.39832,2.59696 4.04384,4.61805 7.72763,9.49134 11.98348,17.89251 14.75947,29.1354 1.04489,4.23168 1.23372,6.33901 1.24165,13.9115 0.007,7.62439 -0.16449,9.59035 -1.18731,13.4993 -2.68624,10.2661 -6.21342,16.63179 -12.89542,23.27061 -4.01855,3.99257 -5.57228,5.13536 -9.76613,7.18236 -5.47148,2.67054 -12.69195,5.09653 -19.09758,6.41643 -4.26502,0.87886 -12.51212,1.42959 -15.28748,1.02122 -11.34401,-1.66918 -22.94907,-6.39005 -32.42876,-13.19278 -3.88001,-2.78432 -13.50545,-11.81077 -13.50545,-12.6647 0,-0.20233 0.64962,-0.41858 1.44363,-0.48089 3.20209,-0.25109 10.17532,-1.90925 15.88012,-3.77624 27.31774,-8.94017 48.03021,-26.08529 58.87268,-48.7333 2.89782,-6.05303 5.90306,-14.6735 6.49748,-18.63719 0.23151,-1.544 0.32711,-2.13326 0.61926,-2.13167 z m -112.63211,70.81457 c 0.4073,0.0138 0.85966,0.11251 1.32982,0.29426 0.81292,0.3141 3.68155,1.00165 6.37439,1.52773 2.69285,0.5261 4.99214,1.0518 5.10917,1.16886 0.37837,0.3784 -6.74318,11.79656 -10.71867,17.18534 -4.9446,6.70241 -14.70046,16.17701 -20.98413,20.37921 -8.20712,5.48849 -16.30332,8.95974 -24.23648,10.39159 -3.59597,0.64903 -13.08293,0.88629 -16.2738,0.40707 -8.19308,-1.23051 -15.99095,-3.50081 -22.71796,-6.61537 l -4.60572,-2.13266 5.83713,-3.07391 c 17.47796,-9.2027 33.61449,-20.40806 45.6348,-31.68947 l 2.36236,-2.21672 6.03707,-0.31479 c 3.32036,-0.173 8.16315,-0.69067 10.7617,-1.14936 4.93815,-0.87167 13.46518,-3.11249 15.03115,-3.95056 0.28992,-0.15517 0.65181,-0.22543 1.05917,-0.21122 z m 21.24454,4.5155 c 0.14525,-0.0158 0.94023,0.78468 1.82714,1.84558 3.52665,4.21851 12.51532,12.64201 16.62038,15.57456 4.89372,3.49597 13.73954,8.23175 17.97485,9.62362 l 2.8873,0.9484 -2.36234,0.37632 c -2.83504,0.45168 -24.06751,0.82918 -27.56053,0.64182 -8.46297,-0.45386 -22.72166,-3.66741 -24.54711,-4.75949 -0.21911,-0.13111 0.62623,-1.58101 1.87838,-3.22258 3.47621,-4.55733 6.18932,-8.72031 9.81226,-15.05883 1.81534,-3.17601 3.36848,-5.85864 3.45225,-5.96121 5.1e-4,-5.9e-4 0.001,-0.001 0.003,-0.003 0.003,-0.001 0.007,-0.003 0.0138,-0.006 z m 69.07462,32.39902 c 0.0779,0.0698 0.15992,0.15594 0.24711,0.26041 -0.0868,-0.10409 -0.16924,-0.19069 -0.24711,-0.26041 z m 39.4878,-221.60991 c -17.53106,0.53221 -34.47388,7.82071 -46.0132,20.451452 -1.6735,1.83183 -7.70688,9.52788 -13.40772,17.10183 -24.79941,32.947678 -30.18836,39.425628 -45.61699,54.834098 -19.99872,19.97261 -41.41742,35.55647 -60.43261,43.96909 -14.58536,6.4528 -26.97413,9.63653 -47.33421,12.16638 -9.0944,1.13002 -10.37161,1.65287 -10.37161,4.24339 0,3.96768 14.98385,20.62174 24.16728,26.86099 8.46842,5.7535 19.23424,10.63108 26.90964,12.19228 l 2.08447,0.42411 -6.46647,5.12995 c -12.94554,10.27012 -26.03555,18.62715 -40.17775,25.65068 -8.22874,4.08666 -9.13944,4.67538 -9.45195,6.09818 -0.46357,2.11071 0.79954,3.39604 6.87509,6.99614 11.41892,6.76634 23.78934,10.57707 36.5778,11.26738 18.22888,0.98405 35.58557,-6.23629 52.69996,-21.92244 l 3.44271,-3.15512 1.81448,0.74688 c 2.95628,1.21845 13.59423,3.92963 20.16592,4.75132 6.05575,0.75721 9.33039,0.94951 22.10038,0.94962 h 15.84599 l 8.34198,-1.14201 0.0826,0.0672 3.09928,-0.37967 c 4.31793,-0.52892 16.72071,-2.47068 18.09907,-2.8334 0.14452,-0.0379 0.28248,-0.0514 0.42621,-0.016 l 9.80883,-2.33998 9.6e-4,9.4e-4 c 0.86772,-0.52169 2.57095,-1.2425 4.95509,-2.08654 17.37033,-6.1493 34.7666,-17.17017 49.26553,-31.21094 11.88982,-11.51405 20.20226,-22.48902 26.7131,-35.26918 9.61904,-18.88118 12.99669,-35.06728 13.74604,-65.87495 l 0.34653,-14.24466 3.49133,-2.0348 c 4.98368,-2.90479 23.04968,-15.05347 26.6862,-17.94491 3.56132,-2.83166 4.67294,-4.67384 3.5141,-5.82719 -0.58477,-0.58198 -20.75715,-5.17153 -39.78983,-9.05261 -1.14725,-0.23397 -1.81339,-1.070448 -3.38478,-4.250658 C 409.84167,80.33414 394.50703,68.24036 376.57637,63.98184 370.78036,62.6053 364.87134,62.03239 359.02761,62.20978 Z m 0.20585,8.7454 c 4.73847,-0.12868 9.48846,0.18957 13.32915,0.98067 11.60071,2.38961 19.53219,6.68711 27.84791,15.088762 7.70851,7.7882 12.20192,15.986968 15.36497,28.033058 2.38648,9.08864 3.0007,15.36888 2.95548,30.22512 -0.0872,28.53465 -2.58621,44.20535 -9.68472,60.72335 -6.62229,15.40982 -17.8458,30.50136 -32.16369,43.24905 -2.7716,2.46766 -6.35802,5.50421 -7.96955,6.74886 l -2.92962,2.26345 2.22822,-4.57132 c 4.11569,-8.44417 6.34121,-20.131 5.81269,-30.5251 -0.94127,-18.51275 -8.22982,-34.85854 -21.81175,-48.91696 -6.60252,-6.83408 -13.87811,-12.54959 -20.72249,-16.28043 -3.57108,-1.94661 -44.06562,-18.1739 -49.05866,-19.65907 -0.50979,-0.15152 -0.9269,-0.47232 -0.9269,-0.71274 0,-0.24042 1.96633,-2.90234 4.36962,-5.91509 2.40327,-3.01277 10.20895,-13.20582 17.34597,-22.65178 7.13699,-9.445938 14.40644,-18.714308 16.15427,-20.596268 6.83332,-7.357592 16.58936,-13.145832 26.60034,-15.780842 3.79375,-0.99857 8.52033,-1.57397 13.25876,-1.70272 z m 14.57876,38.08189 c -2.56746,-0.0323 -5.19642,0.56946 -6.94333,1.72552 -2.71384,1.79592 -4.95085,5.56015 -5.26853,8.86641 -0.4409,4.58832 2.85298,9.80869 7.31162,11.58812 2.02506,0.8082 7.21744,0.67991 9.40228,-0.23274 4.1994,-1.75422 6.96888,-5.89359 6.98991,-10.44917 0.0214,-4.66672 -2.95234,-9.13814 -7.14096,-10.73776 -1.29259,-0.49365 -2.81046,-0.74096 -4.35099,-0.76038 z m 49.80866,0.60002 c 0.98457,-0.0433 3.65911,0.51845 10.38194,1.96755 6.13941,1.32334 11.16296,2.53848 11.16296,2.69997 0,0.16155 -4.0774,2.91379 -9.06092,6.11678 -4.98351,3.20304 -9.27364,5.90387 -9.53366,6.00097 -0.26002,0.0971 -0.47275,-0.42714 -0.47275,-1.16479 0,-1.2417 -2.19566,-12.42975 -2.93377,-14.95017 -0.11729,-0.40049 -0.13453,-0.64444 0.4562,-0.67031 z m -147.93941,34.72504 14.69568,5.72888 c 8.083,3.151 14.7869,5.79961 14.89738,5.88508 0.11046,0.0855 -1.28122,2.8454 -3.09306,6.13339 -12.57338,22.81735 -28.62811,39.27944 -47.70349,48.91488 -14.56468,7.35695 -29.90099,10.61136 -43.82011,9.2978 -6.38673,-0.60274 -8.27734,-0.29678 -8.72367,1.40999 -0.96472,3.68912 7.06119,13.94252 16.21012,20.71005 2.24035,1.65719 3.36042,2.79066 2.91307,2.94718 -0.39977,0.13993 -2.87232,0.63341 -5.49407,1.09653 -5.88439,1.03952 -18.41543,1.43646 -23.03966,0.73033 -10.54734,-1.6105 -24.48077,-8.35367 -34.49958,-16.6963 -3.70826,-3.08788 -11.57983,-11.2815 -11.57983,-12.05364 0,-0.17974 1.01296,-0.3284 2.25101,-0.32999 3.32839,-0.003 16.30011,-1.99387 22.419,-3.43855 31.80501,-7.50934 61.84263,-26.46899 93.61324,-59.08889 z m 38.14608,14.76187 c 0.0827,9.6e-4 0.16495,0.018 0.25032,0.0434 4.18949,1.25026 15.03796,6.49989 19.14701,9.26572 5.55715,3.74064 5.42399,3.43388 4.13889,9.54297 -2.57512,12.24173 -9.64621,26.33073 -18.10836,36.08024 -12.7975,14.74435 -35.29452,27.00677 -55.4941,30.24784 -19.43216,3.11787 -34.96473,-1.06774 -47.42319,-12.77777 l -3.36097,-3.1582 7.38403,-0.3124 c 14.17336,-0.59987 26.85923,-4.10944 39.87361,-11.03055 20.50438,-10.90438 36.49464,-27.66782 49.34107,-51.72656 2.68052,-5.02008 3.45311,-6.1998 4.25169,-6.17477 z m 31.60714,19.09729 c 0.17697,9.5e-4 0.42572,0.21613 0.81723,0.56692 0.58397,0.52317 2.41973,2.62014 4.07994,4.65927 7.7966,9.57607 12.09043,18.05222 14.8912,29.39546 1.05422,4.26944 1.24474,6.3956 1.25275,14.03568 0.007,7.69243 -0.16597,9.67594 -1.19792,13.61978 -2.71022,10.35774 -6.26888,16.78025 -13.01052,23.47831 -4.05442,4.02822 -5.62202,5.18121 -9.8533,7.24648 -5.52032,2.69438 -12.80524,5.14202 -19.26804,6.4737 -4.30309,0.8867 -12.6238,1.44234 -15.42393,1.03033 -11.44527,-1.68407 -23.15391,-6.44708 -32.71822,-13.31053 -3.91464,-2.80917 -13.626,-11.9162 -13.626,-12.77775 0,-0.20413 0.65543,-0.4223 1.45653,-0.48518 3.23067,-0.25332 10.26614,-1.9263 16.02186,-3.80993 27.56156,-9.01998 48.45891,-26.31812 59.39816,-49.16831 2.92369,-6.10705 5.95575,-14.80446 6.55547,-18.80353 0.23358,-1.55776 0.33003,-2.1523 0.62479,-2.1507 z m -113.63744,71.44664 c 0.41095,0.0138 0.86734,0.11353 1.34169,0.29689 0.82019,0.31691 3.71442,1.0106 6.43129,1.54137 2.71688,0.5308 5.0367,1.06119 5.15478,1.17929 0.38174,0.38179 -6.80338,11.90186 -10.81436,17.33873 -4.98873,6.76224 -14.83166,16.32141 -21.17142,20.56112 -8.28038,5.53747 -16.44884,9.03971 -24.45281,10.48435 -3.62806,0.65481 -13.1997,0.8942 -16.41905,0.41069 -8.26621,-1.24148 -16.13369,-3.53205 -22.92073,-6.6744 l -4.64684,-2.15171 5.88923,-3.10134 c 17.63397,-9.28485 33.91453,-20.59023 46.04213,-31.97232 l 2.38344,-2.23651 6.09096,-0.31761 c 3.35,-0.17454 8.23602,-0.69682 10.85776,-1.1596 4.98223,-0.87946 13.58536,-3.14028 15.16531,-3.98584 0.29251,-0.15654 0.65763,-0.22743 1.06862,-0.21311 z m 21.43417,4.55582 c 0.14655,-0.0159 0.94863,0.79167 1.84344,1.86204 3.55814,4.25617 12.62704,12.75486 16.76874,15.71358 4.9374,3.52719 13.86218,8.30522 18.13529,9.70953 l 2.91306,0.95685 -2.38341,0.37968 c -2.86036,0.45573 -24.28234,0.83658 -27.80654,0.64755 -8.5385,-0.45792 -22.92447,-3.70014 -24.76621,-4.80197 -0.22107,-0.13228 0.63183,-1.59512 1.89515,-3.25135 3.50724,-4.598 6.24457,-8.79814 9.89983,-15.19322 1.83155,-3.20438 3.39856,-5.91095 3.48307,-6.01444 5.1e-4,-5.8e-4 9.6e-4,-9.6e-4 0.003,-0.003 0.003,-9.7e-4 0.007,-0.003 0.0138,-0.006 z m 69.69116,32.68821 c 0.0786,0.0704 0.16135,0.15733 0.24931,0.26273 -0.0876,-0.10501 -0.17074,-0.19239 -0.24931,-0.26273 z M 357.89813,65.15278 c -17.06184,0.51796 -33.55118,7.61139 -44.78164,19.904062 -1.62871,1.78279 -7.50061,9.27286 -13.04887,16.644098 -24.13564,32.06581 -29.38036,38.37038 -44.39604,53.36646 -19.46345,19.43802 -40.30887,34.60477 -58.81512,42.79224 -14.19498,6.28009 -26.25216,9.3786 -46.0673,11.84074 -8.85098,1.09977 -10.094,1.60863 -10.094,4.12981 0,3.86149 14.5828,20.06979 23.52043,26.14205 8.24176,5.59951 18.71943,10.34654 26.1894,11.86595 l 2.02867,0.41276 -6.29339,4.99265 c -12.59904,9.99525 -25.3387,18.1286 -39.10238,24.96413 -8.00849,3.97729 -8.89482,4.55025 -9.19897,5.93497 -0.45116,2.05422 0.77815,3.30514 6.69108,6.80888 11.11329,6.58523 23.15261,10.29398 35.59878,10.96582 17.74099,0.95769 34.63312,-6.06938 51.28945,-21.3357 l 3.35056,-3.07067 1.76591,0.7269 c 2.87716,1.18583 13.23037,3.82445 19.62618,4.62415 5.89367,0.73693 9.08066,0.92408 21.50886,0.9242 h 15.42187 l 8.1187,-1.11145 0.0804,0.0654 3.01633,-0.36951 c 4.20236,-0.51476 16.27318,-2.40454 17.61465,-2.75755 0.14065,-0.0369 0.27492,-0.05 0.4148,-0.0156 l 9.54629,-2.27735 10e-4,9.1e-4 c 0.84451,-0.50772 2.50215,-1.20924 4.82247,-2.03068 16.90541,-5.98472 33.83607,-16.71062 47.94693,-30.37558 11.57159,-11.20587 19.66153,-21.88709 25.99812,-34.32518 9.36158,-18.37583 12.64883,-34.1287 13.37812,-64.11181 l 0.33725,-13.8634 3.3979,-1.98032 c 4.85028,-2.82706 22.43275,-14.65058 25.97193,-17.46463 3.466,-2.75587 4.54786,-4.54873 3.42005,-5.67121 -0.56913,-0.5664 -20.20158,-5.03312 -38.72485,-8.81032 -1.11655,-0.22771 -1.76486,-1.0418 -3.29419,-4.136888 -7.78653,-15.75871 -22.71074,-27.528792 -40.16148,-31.673322 -5.64088,-1.3397 -11.39175,-1.89728 -17.07906,-1.72463 z m 0.20034,8.51133 c 4.61165,-0.12524 9.2345,0.1845 12.97239,0.95441 11.29022,2.32566 19.00941,6.50813 27.10256,14.684922 7.50219,7.57973 11.87533,15.559068 14.95372,27.282748 2.3226,8.84536 2.92039,14.95751 2.87637,29.41614 -0.0848,27.77089 -2.51698,43.02217 -9.4255,59.09807 -6.44504,14.99737 -17.36815,29.68498 -31.30282,42.09147 -2.69742,2.40162 -6.18784,5.35689 -7.75624,6.56824 l -2.85121,2.20285 2.16858,-4.44897 c 4.00553,-8.21815 6.17149,-19.59218 5.65711,-29.70807 -0.91608,-18.01726 -8.00955,-33.92556 -21.22796,-47.60769 -6.4258,-6.65117 -13.50666,-12.21371 -20.16784,-15.84469 -3.4755,-1.89451 -42.88619,-17.68747 -47.7456,-19.13288 -0.49614,-0.14748 -0.90208,-0.45969 -0.90208,-0.69367 0,-0.23399 1.9137,-2.82466 4.25265,-5.75678 2.33895,-2.93212 9.93572,-12.85236 16.88171,-22.04548 6.94597,-9.19313 14.02085,-18.213428 15.7219,-20.045018 6.65042,-7.16066 16.14534,-12.793972 25.88837,-15.358452 3.69221,-0.97185 8.29229,-1.53185 12.90389,-1.65715 z m 14.18856,37.06262 c -2.49875,-0.0315 -5.05734,0.5542 -6.75749,1.67933 -2.6412,1.74785 -4.81834,5.41134 -5.12752,8.62909 -0.4291,4.46553 2.77662,9.54617 7.11592,11.27798 1.97086,0.78656 7.02427,0.66169 9.15063,-0.22652 4.08701,-1.70727 6.78236,-5.73585 6.80282,-10.1695 0.0209,-4.54181 -2.87332,-8.89356 -6.94983,-10.45037 -1.25799,-0.48043 -2.73524,-0.72111 -4.23453,-0.74001 z m 48.47552,0.58395 c 0.95821,-0.0421 3.56117,0.50457 10.10406,1.91489 5.97509,1.28791 10.86418,2.47054 10.86418,2.6277 0,0.15723 -3.96826,2.83581 -8.8184,5.95307 -4.85012,3.11731 -9.02543,5.74584 -9.27849,5.84035 -0.25305,0.0945 -0.4601,-0.4157 -0.4601,-1.13362 0,-1.20846 -2.13689,-12.09707 -2.85524,-14.55001 -0.11415,-0.38977 -0.13093,-0.62721 0.44399,-0.65238 z m -143.97978,33.79562 14.30234,5.57555 c 7.86666,3.06667 14.39113,5.64437 14.49866,5.72756 0.1075,0.0832 -1.24694,2.76924 -3.01028,5.96923 -12.23685,22.20663 -27.86187,38.22812 -46.42669,47.60565 -14.17486,7.16005 -29.10069,10.32736 -42.64726,9.04895 -6.21579,-0.5866 -8.0558,-0.28884 -8.49019,1.37225 -0.93889,3.59038 6.8722,13.56935 15.77626,20.15574 2.18039,1.61283 3.27048,2.71597 2.8351,2.86831 -0.38907,0.13618 -2.79544,0.61644 -5.34702,1.06718 -5.72689,1.01169 -17.92253,1.39801 -22.423,0.71078 -10.26504,-1.5674 -23.82553,-8.13008 -33.57618,-16.24942 -3.60902,-3.00523 -11.2699,-10.97955 -11.2699,-11.73102 0,-0.17494 0.98585,-0.31961 2.19076,-0.32115 3.23931,-0.003 15.86383,-1.94051 21.81895,-3.34653 30.95374,-7.30835 60.1874,-25.76054 91.10766,-57.50737 z m 37.12509,14.36676 c 0.0805,0.001 0.16053,0.0175 0.24362,0.0422 4.07735,1.21679 14.63546,6.32591 18.63453,9.01772 5.40842,3.64052 5.27882,3.34197 4.02812,9.28755 -2.5062,11.91407 -9.38803,25.62599 -17.62369,35.11454 -12.45497,14.34972 -34.34985,26.28394 -54.00879,29.43825 -18.91205,3.03443 -34.02889,-1.03915 -46.15389,-12.43576 l -3.27102,-3.07369 7.1864,-0.30404 c 13.79401,-0.58381 26.14033,-3.99943 38.80638,-10.73531 19.95558,-10.61251 35.51786,-26.92728 48.02044,-50.34207 2.60878,-4.88572 3.36069,-6.03387 4.1379,-6.0095 z m 30.76117,18.58616 c 0.17222,9.2e-4 0.41432,0.21034 0.79536,0.55174 0.56833,0.50917 2.35496,2.55001 3.97073,4.53457 7.58793,9.31975 11.76684,17.56904 14.49264,28.60868 1.026,4.15517 1.21142,6.22441 1.21921,13.66 0.007,7.48655 -0.16152,9.41697 -1.16585,13.25525 -2.63768,10.08051 -6.10109,16.33112 -12.66229,22.84992 -3.9459,3.92039 -5.47154,5.04252 -9.58958,7.05251 -5.37256,2.62227 -12.4625,5.0044 -18.75232,6.30044 -4.18792,0.86297 -12.28592,1.40374 -15.01111,1.00275 -11.13893,-1.639 -22.53419,-6.27452 -31.8425,-12.95427 -3.80987,-2.73399 -13.2613,-11.59725 -13.2613,-12.43575 0,-0.19867 0.63788,-0.41101 1.41754,-0.47219 3.1442,-0.24655 9.99136,-1.87474 15.59303,-3.70797 26.82388,-8.77855 47.1619,-25.61371 57.80836,-47.85229 2.84543,-5.9436 5.79634,-14.40822 6.38001,-18.30026 0.22733,-1.51608 0.3212,-2.09469 0.60807,-2.09313 z m -110.59591,69.53436 c 0.39994,0.0135 0.84412,0.11048 1.30578,0.28894 0.79823,0.30842 3.615,0.98354 6.25915,1.50011 2.64417,0.51659 4.90189,1.03279 5.01681,1.14773 0.37153,0.37156 -6.62128,11.5833 -10.5249,16.87466 -4.85521,6.58124 -14.4347,15.88455 -20.60477,20.01079 -8.05875,5.38926 -16.00858,8.79776 -23.79832,10.20372 -3.53096,0.6373 -12.84641,0.87027 -15.9796,0.39971 -8.04496,-1.20826 -15.70186,-3.43752 -22.30725,-6.49577 l -4.52246,-2.09411 5.7316,-3.01834 c 17.16199,-9.03633 33.0068,-20.03911 44.8098,-31.11657 l 2.31965,-2.17665 5.92793,-0.3091 c 3.26034,-0.16987 8.01558,-0.67818 10.56715,-1.12858 4.84888,-0.85591 13.22175,-3.05622 14.75941,-3.87914 0.28468,-0.15236 0.64003,-0.22135 1.04002,-0.2074 z m 20.86048,4.43387 c 0.14262,-0.0155 0.92323,0.77049 1.7941,1.81221 3.4629,4.14225 12.28907,12.41347 16.31992,15.293 4.80525,3.43277 13.49115,8.08293 17.64989,9.44964 l 2.8351,0.93126 -2.31963,0.36951 c -2.78379,0.44352 -23.63241,0.81419 -27.06228,0.63022 -8.30997,-0.44566 -22.31089,-3.60111 -24.10334,-4.67345 -0.21515,-0.12874 0.61491,-1.55243 1.84442,-3.16432 3.41337,-4.47494 6.07743,-8.56266 9.63487,-14.78659 1.78252,-3.11859 3.30759,-5.75272 3.38984,-5.85344 5e-4,-5.8e-4 10e-4,-0.001 0.003,-0.003 0.003,-0.001 0.007,-0.003 0.0135,-0.006 z m 67.82586,31.8133 c 0.0765,0.0685 0.15703,0.15312 0.24264,0.2557 -0.0852,-0.10221 -0.16618,-0.18724 -0.24264,-0.2557 z M 358.63897,61.47304 c -17.37596,0.52749 -34.16889,7.75152 -45.60612,20.27051 -1.6587,1.815622 -7.6387,9.443592 -13.28911,16.950542 -24.58001,32.656178 -29.92129,39.076828 -45.21343,54.348998 -19.82179,19.7959 -41.051,35.24189 -59.89798,43.5801 -14.45632,6.39571 -26.73549,9.55127 -46.91545,12.05874 -9.01394,1.12002 -10.27984,1.63825 -10.27984,4.20585 0,3.93258 14.85128,20.43929 23.95347,26.62335 8.3935,5.70261 19.06407,10.53703 26.67157,12.08442 l 2.06602,0.42036 -6.40925,5.08457 c -12.83101,10.17927 -25.80522,18.46237 -39.82231,25.42375 -8.15593,4.05051 -9.05858,4.63402 -9.36833,6.04424 -0.45947,2.09204 0.79248,3.36599 6.81427,6.93424 11.3179,6.70647 23.57888,10.4835 36.2542,11.16771 18.06762,0.97532 35.27075,-6.18112 52.23375,-21.72851 l 3.41225,-3.12721 1.79842,0.74028 c 2.93013,1.20767 13.47395,3.89487 19.98752,4.70929 6.00218,0.7505 9.24785,0.94109 21.90486,0.94122 h 15.70581 l 8.26817,-1.13192 0.0819,0.0666 3.07187,-0.37632 c 4.27973,-0.52423 16.57279,-2.44881 17.93895,-2.80832 0.14324,-0.0376 0.27999,-0.0509 0.42244,-0.0159 l 9.72205,-2.31928 10e-4,9.2e-4 c 0.86006,-0.51706 2.54822,-1.2315 4.91126,-2.06806 17.21666,-6.09491 34.45903,-17.01829 48.82969,-30.93483 11.78463,-11.41219 20.02352,-22.29006 26.47677,-34.95715 9.53394,-18.71415 12.88171,-34.75705 13.62443,-65.29219 l 0.34346,-14.11864 3.46046,-2.01678 c 4.93958,-2.87911 22.84576,-14.92031 26.4501,-17.78617 3.52982,-2.80661 4.6316,-4.63248 3.48302,-5.77563 -0.57961,-0.57683 -20.57351,-5.12578 -39.43782,-8.972528 -1.13711,-0.2319 -1.79735,-1.06098 -3.35484,-4.21305 C 409.00231,79.43739 393.80333,67.45061 376.0313,63.22977 370.28656,61.86541 364.42981,61.29756 358.63779,61.47339 Z m 0.20403,8.66803 c 4.69656,-0.12755 9.40452,0.1879 13.21123,0.97198 11.49809,2.36848 19.3594,6.62795 27.60155,14.955292 7.64032,7.71928 12.09397,15.845528 15.22904,27.785058 2.36536,9.00821 2.97415,15.23289 2.92932,29.95772 -0.0864,28.28219 -2.56332,43.81426 -9.59903,60.18614 -6.5637,15.27349 -17.68792,30.23152 -31.87914,42.86642 -2.74709,2.44584 -6.30177,5.45552 -7.89904,6.68917 l -2.90371,2.24341 2.20851,-4.53088 c 4.07927,-8.36946 6.28511,-19.9529 5.76126,-30.25503 -0.93294,-18.34898 -8.15701,-34.55017 -21.61879,-48.48421 -6.54411,-6.77362 -13.75533,-12.43858 -20.53916,-16.13641 -3.53948,-1.92939 -43.67577,-18.01311 -48.62465,-19.48514 -0.50527,-0.15019 -0.91869,-0.46815 -0.91869,-0.70644 0,-0.2383 1.94894,-2.87666 4.33095,-5.86277 2.38201,-2.9861 10.11865,-13.08898 17.19252,-22.45136 7.07386,-9.362388 14.27899,-18.548758 16.01136,-20.414068 6.77286,-7.292502 16.4426,-13.029532 26.36501,-15.641222 3.76018,-0.98974 8.44496,-1.56005 13.14146,-1.68766 z m 14.44979,37.74499 c -2.54475,-0.0321 -5.15045,0.5644 -6.8819,1.71024 -2.68983,1.78003 -4.90705,5.51097 -5.22193,8.78797 -0.437,4.54774 2.82774,9.72192 7.24694,11.48562 2.00714,0.80104 7.15359,0.67387 9.3191,-0.23069 4.16226,-1.73871 6.90723,-5.84146 6.92807,-10.35674 0.0213,-4.62543 -2.92622,-9.0573 -7.07779,-10.64277 -1.28115,-0.48927 -2.7856,-0.73439 -4.31249,-0.75363 z m 49.36801,0.5947 c 0.97586,-0.0429 3.62674,0.51386 10.29009,1.95014 6.0851,1.31162 11.0642,2.51603 11.0642,2.67608 0,0.16013 -4.04132,2.88802 -8.98075,6.06268 -4.93942,3.1747 -9.1916,5.85162 -9.44932,5.94787 -0.25771,0.0962 -0.46857,-0.42335 -0.46857,-1.15449 0,-1.23071 -2.17623,-12.31979 -2.90781,-14.81789 -0.11625,-0.39695 -0.13334,-0.63876 0.45216,-0.66439 z m -146.63062,34.41784 14.56567,5.6782 c 8.01149,3.12313 14.65608,5.74829 14.76559,5.83301 0.10948,0.0847 -1.26989,2.82022 -3.0657,6.07913 -12.46214,22.61548 -28.37484,38.93195 -47.28146,48.48213 -14.43584,7.29187 -29.63647,10.5175 -43.43245,9.21555 -6.33023,-0.5974 -8.20411,-0.29416 -8.6465,1.39751 -0.95618,3.65649 6.99872,13.81918 16.06672,20.52684 2.22053,1.64252 3.33069,2.76597 2.8873,2.92111 -0.39624,0.13869 -2.84691,0.62779 -5.44547,1.08683 -5.83233,1.03032 -18.2525,1.42375 -22.83583,0.72387 -10.45404,-1.59626 -24.26419,-8.27977 -34.19436,-16.54859 -3.67547,-3.06056 -11.47739,-11.1817 -11.47739,-11.947 0,-0.17817 1.004,-0.3255 2.23109,-0.32707 3.29895,-0.003 16.1559,-1.97623 22.22066,-3.40814 31.52364,-7.44291 61.29553,-26.23482 92.78507,-58.56615 z m 37.80861,14.63126 c 0.082,10e-4 0.16349,0.0178 0.24811,0.043 4.15241,1.23919 14.90491,6.44238 18.97761,9.18375 5.508,3.70755 5.37601,3.4035 4.10228,9.45854 -2.55234,12.13343 -9.56087,26.0978 -17.94816,35.76104 -12.68428,14.61392 -34.98227,26.76786 -55.00316,29.98025 -19.26024,3.0903 -34.6554,-1.05828 -47.00364,-12.66472 l -3.33124,-3.13028 7.31871,-0.30964 c 14.04797,-0.59456 26.62161,-4.07306 39.52085,-10.93296 20.32299,-10.8079 36.17179,-27.42304 48.90456,-51.26893 2.65681,-4.97567 3.42256,-6.14496 4.21408,-6.12014 z m 31.32752,18.92836 c 0.17539,9.4e-4 0.42195,0.21421 0.81,0.5619 0.5788,0.51854 2.39832,2.59696 4.04384,4.61805 7.72763,9.49134 11.98348,17.89251 14.75947,29.1354 1.04489,4.23168 1.23372,6.33901 1.24165,13.9115 0.007,7.62439 -0.16449,9.59035 -1.18731,13.4993 -2.68624,10.2661 -6.21342,16.63179 -12.89542,23.27061 -4.01855,3.99257 -5.57228,5.13536 -9.76613,7.18236 -5.47148,2.67054 -12.69195,5.09653 -19.09758,6.41643 -4.26502,0.87886 -12.51212,1.42959 -15.28748,1.02122 -11.34401,-1.66918 -22.94907,-6.39005 -32.42876,-13.19278 -3.88001,-2.78432 -13.50545,-11.81077 -13.50545,-12.6647 0,-0.20233 0.64962,-0.41858 1.44363,-0.48089 3.20209,-0.25109 10.17532,-1.90925 15.88012,-3.77624 27.31774,-8.94017 48.03021,-26.08529 58.87268,-48.7333 2.89782,-6.05303 5.90306,-14.6735 6.49748,-18.63719 0.23151,-1.544 0.32711,-2.13326 0.61926,-2.13167 z M 232.5342,247.27279 c 0.4073,0.0138 0.85966,0.11251 1.32982,0.29426 0.81292,0.3141 3.68155,1.00165 6.37439,1.52773 2.69285,0.5261 4.99214,1.0518 5.10917,1.16886 0.37837,0.3784 -6.74318,11.79656 -10.71867,17.18534 -4.9446,6.70241 -14.70046,16.17701 -20.98413,20.37921 -8.20712,5.48849 -16.30332,8.95974 -24.23648,10.39159 -3.59597,0.64903 -13.08293,0.88629 -16.2738,0.40707 -8.19308,-1.23051 -15.99095,-3.50081 -22.71796,-6.61537 l -4.60572,-2.13266 5.83713,-3.07391 c 17.47796,-9.2027 33.61449,-20.40806 45.6348,-31.68947 l 2.36236,-2.21672 6.03707,-0.31479 c 3.32036,-0.173 8.16315,-0.69067 10.7617,-1.14936 4.93815,-0.87167 13.46518,-3.11249 15.03115,-3.95056 0.28992,-0.15517 0.65181,-0.22543 1.05917,-0.21122 z m 21.24454,4.5155 c 0.14525,-0.0158 0.94023,0.78468 1.82714,1.84558 3.52665,4.21851 12.51532,12.64201 16.62038,15.57456 4.89372,3.49597 13.73954,8.23175 17.97485,9.62362 l 2.8873,0.9484 -2.36234,0.37632 c -2.83504,0.45168 -24.06751,0.82918 -27.56053,0.64182 -8.46297,-0.45386 -22.72166,-3.66741 -24.54711,-4.75949 -0.21911,-0.13111 0.62623,-1.58101 1.87838,-3.22258 3.47621,-4.55733 6.18932,-8.72031 9.81226,-15.05883 1.81534,-3.17601 3.36848,-5.85864 3.45225,-5.96121 5.1e-4,-5.9e-4 10e-4,-0.001 0.003,-0.003 0.003,-10e-4 0.007,-0.003 0.0138,-0.006 z m 69.07462,32.39902 c 0.0779,0.0698 0.15992,0.15594 0.24711,0.26041 -0.0868,-0.10409 -0.16924,-0.19069 -0.24711,-0.26041 z" />
  </g>
</svg>
